<?xml version="1.0" encoding="UTF-8" standalone="no"?>
<!-- Created with Inkscape (http://www.inkscape.org/) -->

<svg
   version="1.1"
   id="svg2"
   xml:space="preserve"
   width="5020.9731"
   height="2692.28"
   viewBox="0 0 5020.9731 2692.28"
   xmlns="http://www.w3.org/2000/svg"
   xmlns:svg="http://www.w3.org/2000/svg"><defs
     id="defs6"><clipPath
       clipPathUnits="userSpaceOnUse"
       id="clipPath16"><path
         d="M 0,2019.214 H 3765.728 V 0 H 0 Z"
         id="path14" /></clipPath><clipPath
       clipPathUnits="userSpaceOnUse"
       id="clipPath28"><path
         d="M 0,2019.214 H 3765.728 V 0 H 0 Z"
         id="path26" /></clipPath><clipPath
       clipPathUnits="userSpaceOnUse"
       id="clipPath124"><path
         d="M 1103.931,902.052 H 2756.49 V 2019.215 H 1103.931 Z m 533.913,881.825 4.153,9.096 240.944,-110.047 255.388,108.15 3.899,-9.208 -259.44,-109.866 z"
         id="path122" /></clipPath><clipPath
       clipPathUnits="userSpaceOnUse"
       id="clipPath204"><path
         d="M 0,2019.214 H 3765.728 V 0 H 0 Z"
         id="path202" /></clipPath><clipPath
       clipPathUnits="userSpaceOnUse"
       id="clipPath376"><path
         d="m 1908.74,1425.7 h 534.72 V 733.967 h -534.72 z"
         id="path374" /></clipPath><clipPath
       clipPathUnits="userSpaceOnUse"
       id="clipPath380"><path
         d="m 1944.118,1121.845 c 23.036,1.861 53.202,-6.221 70.603,8.794 17.401,15.013 78.262,23.549 99.834,16.033 21.572,-7.516 24.469,-29.548 55.521,-33.634 31.054,-4.085 21.723,28.932 43.803,23.495 19.757,-4.864 38.254,10.789 87.375,-0.247 49.121,-11.04 89.042,-53.231 110.819,-42.286 21.776,10.95 44.261,35.019 22.57,50.36 -21.688,15.344 -45.757,32.605 -50.442,79.769 -4.686,47.163 -40.609,159.98 -86.731,173.083 -46.124,13.104 -309.652,30.566 -316.697,28.286 -7.045,-2.277 -71.254,-173.77 -72.024,-178.716 -0.772,-4.944 35.369,-124.937 35.369,-124.937"
         id="path378" /></clipPath><clipPath
       clipPathUnits="userSpaceOnUse"
       id="clipPath384"><path
         d="m 2082.16,1149.147 c 8.787,0.521 16.995,0.383 23.668,-0.524 v 0 c 3.302,21.169 9.807,62.884 9.807,62.884 v 0 l -23.193,3.616 c 0,0 -7.217,-46.317 -10.282,-65.976"
         id="path382" /></clipPath><clipPath
       clipPathUnits="userSpaceOnUse"
       id="clipPath388"><path
         d="m 2052.154,1145.479 c -0.018,-0.114 -0.036,-0.23 -0.054,-0.35 v 0 c 7.933,1.651 16.268,2.874 24.308,3.59 v 0 c 2.975,19.069 10.492,67.269 10.492,67.269 v 0 l -23.193,3.617 c 0,0 -10.533,-67.595 -11.553,-74.126"
         id="path386" /></clipPath><clipPath
       clipPathUnits="userSpaceOnUse"
       id="clipPath392"><path
         d="m 2047.015,1143.999 c 24.215,5.741 53.822,7.453 67.54,2.673 v 0 c 21.572,-7.516 24.469,-29.549 55.52,-33.635 v 0 c 15.249,-2.006 20.761,4.935 25.035,11.876 v 0 c 4.43,7.193 7.532,14.387 18.769,11.62 v 0 c 8.587,-2.115 16.936,-0.352 27.664,1.409 v 0 c 5.899,0.968 12.519,1.937 20.29,2.261 v 0 l 8.268,53.011 -210.295,32.797 z"
         id="path390" /></clipPath><clipPath
       clipPathUnits="userSpaceOnUse"
       id="clipPath396"><path
         d="m 1944.118,1121.845 c 23.036,1.861 53.202,-6.221 70.603,8.794 17.401,15.013 78.262,23.549 99.834,16.033 21.572,-7.516 24.469,-29.548 55.521,-33.634 31.054,-4.085 21.723,28.932 43.803,23.495 19.757,-4.864 38.254,10.789 87.375,-0.247 49.121,-11.04 89.042,-53.231 110.819,-42.286 21.776,10.95 44.261,35.019 22.57,50.36 -21.688,15.344 -45.757,32.605 -50.442,79.769 -4.686,47.163 -40.609,159.98 -86.731,173.083 -46.124,13.104 -309.652,30.566 -316.697,28.286 -7.045,-2.277 -71.254,-173.77 -72.024,-178.716 -0.772,-4.944 35.369,-124.937 35.369,-124.937"
         id="path394" /></clipPath><clipPath
       clipPathUnits="userSpaceOnUse"
       id="clipPath488"><path
         d="m 2105.776,1300.568 c -1.017,-6.531 -11.568,-74.125 -11.568,-74.125 v 0 l 23.194,-3.616 c 0,0 10.643,68.246 11.61,74.452 v 0 c 0.969,6.204 3.044,22.604 -8.077,24.339 v 0 c -0.541,0.084 -1.063,0.125 -1.567,0.125 v 0 c -9.685,0 -12.623,-14.968 -13.592,-21.175"
         id="path486" /></clipPath><clipPath
       clipPathUnits="userSpaceOnUse"
       id="clipPath508"><path
         d="m 2077.042,1305.049 c -1.019,-6.53 -11.57,-74.124 -11.57,-74.124 v 0 l 23.193,-3.618 c 0,0 10.644,68.249 11.611,74.453 v 0 c 0.968,6.205 3.045,22.605 -8.077,24.34 v 0 c -0.541,0.084 -1.063,0.124 -1.567,0.124 v 0 c -9.684,10e-4 -12.623,-14.966 -13.59,-21.175"
         id="path506" /></clipPath><clipPath
       clipPathUnits="userSpaceOnUse"
       id="clipPath528"><path
         d="m 2140.916,1420.075 -68.48,-40.163 9.474,-12.181 -22.104,-141.719 210.295,-32.798 22.104,141.72 15.998,8.208 -58.221,59.923 -21.656,221.463 z"
         id="path526" /></clipPath><clipPath
       clipPathUnits="userSpaceOnUse"
       id="clipPath540"><path
         d="M 0,2019.214 H 3765.728 V 0 H 0 Z"
         id="path538" /></clipPath></defs><g
     id="g8"
     transform="matrix(1.3333333,0,0,-1.3333333,0,2692.28)"><g
       id="g10" /><g
       id="g22"><g
         id="g24"
         clip-path="url(#clipPath28)"><g
           id="g30"
           transform="translate(1882.8643,353.2188)"><path
             d="m 0,0 c -746.413,0 -1351.496,190.42 -1351.496,425.308 0,234.894 605.083,425.307 1351.496,425.307 746.414,0 1351.496,-190.413 1351.496,-425.307 C 1351.496,190.42 746.414,0 0,0 M 1590.727,495.308 C 1495.204,782.474 819.442,1005.029 0,1005.029 c -819.441,0 -1495.204,-222.555 -1590.727,-509.721 h -11.563 v -70 c 0,-320.167 717.367,-579.722 1602.29,-579.722 884.924,0 1602.29,259.555 1602.29,579.722 v 70 z"
             style="fill:#000000;fill-opacity:1;fill-rule:nonzero;stroke:none"
             id="path32" /></g><g
           id="g34"
           transform="translate(1882.8643,423.2188)"><path
             d="m 0,0 c -746.413,0 -1351.496,190.42 -1351.496,425.308 0,234.894 605.083,425.307 1351.496,425.307 746.414,0 1351.496,-190.413 1351.496,-425.307 C 1351.496,190.42 746.414,0 0,0 Z m 0,1005.029 c -884.923,0 -1602.29,-259.546 -1602.29,-579.721 0,-320.167 717.367,-579.722 1602.29,-579.722 884.924,0 1602.29,259.555 1602.29,579.722 0,320.175 -717.366,579.721 -1602.29,579.721 z"
             style="fill:none;stroke:#000000;stroke-width:20;stroke-linecap:butt;stroke-linejoin:miter;stroke-miterlimit:10;stroke-dasharray:none;stroke-opacity:1"
             id="path36" /></g><g
           id="g38"
           transform="translate(1882.8643,423.2188)"><path
             d="m 0,0 c -746.413,0 -1351.496,190.42 -1351.496,425.308 0,234.894 605.083,425.307 1351.496,425.307 746.414,0 1351.496,-190.413 1351.496,-425.307 C 1351.496,190.42 746.414,0 0,0 m 0,1005.029 c -884.923,0 -1602.29,-259.546 -1602.29,-579.721 0,-320.167 717.367,-579.722 1602.29,-579.722 884.924,0 1602.29,259.555 1602.29,579.722 0,320.175 -717.366,579.721 -1602.29,579.721"
             style="fill:#ffffff;fill-opacity:1;fill-rule:nonzero;stroke:none"
             id="path40" /></g><g
           id="g42"
           transform="translate(1882.8643)"><path
             d="m 0,0 c -517.5,0 -782.805,118.212 -794.183,195.275 -11.378,77.064 21,309.301 31.709,389.723 10.709,80.422 46.658,68.575 46.658,68.575 42.989,-1.307 59.588,-62.243 131.011,-75.692 87.312,-16.442 476.622,-26.347 584.805,-26.347 108.183,0 497.493,9.905 584.805,26.347 71.423,13.449 88.022,74.385 131.011,75.692 0,0 35.949,11.847 46.658,-68.575 10.709,-80.422 43.087,-312.659 31.709,-389.723 C 782.805,118.212 517.5,0 0,0"
             style="fill:#000000;fill-opacity:1;fill-rule:nonzero;stroke:none"
             id="path44" /></g><g
           id="g46"
           transform="translate(1882.8643,17.0078)"><path
             d="m 0,0 c -291.021,0 -477.159,37 -582.062,68.04 -147.47,43.634 -192.146,91.379 -195.296,112.712 -10.41,70.508 34.161,400.621 34.743,404.993 25.31,-18.372 111.291,-33.419 154.662,-41.586 89.745,-16.899 480.315,-26.64 587.953,-26.64 107.638,0 498.208,9.741 587.953,26.64 43.371,8.167 129.352,23.214 154.662,41.586 0.582,-4.372 45.153,-334.485 34.743,-404.993 C 774.208,159.419 729.532,111.674 582.062,68.04 477.159,37 291.021,0 0,0"
             style="fill:#ffffff;fill-opacity:1;fill-rule:nonzero;stroke:none"
             id="path48" /></g><g
           id="g50"
           transform="translate(2647.3608,569.8857)"><path
             d="m 0,0 c 17.58,-7.803 22.264,-9.364 29.786,-9.81 -1.227,23.555 -14.962,43.768 -13.72,62.412 1.243,18.643 16.22,30.988 39.22,25.738 17.793,-4.062 402.193,-65.655 640.597,-29.053 106.817,16.401 214.452,41.666 250.76,56.238 39.166,15.72 33.416,87.97 -10.83,69.432 0,0 -35.503,-15.962 -67.503,-41.962 -32,-26 -61.177,-71.15 -89.755,-60.908 -28.578,10.242 -47.244,32.603 -75.578,32.603 -28.334,0 -32.668,-0.115 -32.668,-0.115 0,0 -113,-66.814 -176,-149.197 -63,-82.383 -140.578,-164.08 -190,-182.384 0,0 -51.126,-10.516 -88.23,5.575 -37.103,16.092 -46.361,29.89 -64.899,42.825 -18.538,12.934 -51.701,27.951 -63.786,48.901 -12.085,20.95 13.415,77.2 81.915,73.7 68.5,-3.5 87.668,-38.442 92.334,-55.888 0,0 182.852,177.851 282.842,248.183 107.157,75.372 205.77,65.449 245.13,65.077 39.361,-0.372 47.25,-11.636 48.972,-24.629 20.972,8.757 66.368,9.055 116,37.752 49.632,28.698 118.905,58.253 156.313,14.046 37.409,-44.207 -74.591,-200.541 -139.591,-240.541 -65,-40 -272.618,-92.053 -424.809,-99.526 -152.191,-7.474 -433.191,11.621 -433.191,11.621 0,0 12.019,-57.444 1.509,-80.52 -10.509,-23.075 -47.567,-45.527 -87.205,-59.884 C -3.024,-81.673 0,0 0,0"
             style="fill:#000000;fill-opacity:1;fill-rule:nonzero;stroke:none"
             id="path52" /></g><g
           id="g54"
           transform="translate(2655.0474,549.7754)"><path
             d="m 0,0 c 15.257,-7.207 25.98,-10.9 38.927,-12.518 13.696,-1.711 24.529,-1.183 30.971,14.069 4.352,-9.504 12.648,-37.146 19.475,-66.462 -12.001,-17.984 -11.969,-23.824 -12.395,-35.62 -0.273,-7.53 7.727,-19.28 23.218,-30.213 2.833,-4.989 0.051,-10.611 -0.673,-14.314 -5.568,-28.504 -36.234,-42.837 -71.134,-61.725 C 24.389,-151.395 0,0 0,0"
             style="fill:#ffffff;fill-opacity:1;fill-rule:nonzero;stroke:none"
             id="path56" /></g><g
           id="g58"
           transform="translate(2680.436,617.8799)"><path
             d="m 0,0 c 1.234,8.834 8.285,19.469 26.093,14.401 17.807,-5.067 209.14,-47.111 484.14,-38.255 275,8.855 501.891,101.355 539.196,122.855 0,0 -44.863,-113.333 -128.499,-150.931 -89.375,-40.176 -259.098,-80.555 -390.397,-89.812 0,0 -254.632,-11.407 -310.299,10e-4 -23.563,34.367 -71.072,37.491 -86.251,37.491 -15.178,0 -35.792,1 -60.185,-18.592 0,0 -22.066,94.402 -38.232,106.177 C 22.983,-7.499 24.734,-25 11.567,-22.166 -1.6,-19.332 -1.234,-8.834 0,0"
             style="fill:#ffffff;fill-opacity:1;fill-rule:nonzero;stroke:none"
             id="path60" /></g><g
           id="g62"
           transform="translate(3433.5815,677.8809)"><path
             d="M 0,0 C 0.088,-8.75 4.152,-12.166 22.745,0.917 41.338,14 77.838,42.5 97.088,54 c 19.25,11.5 21.35,16.041 14,16.25 -14.75,0.42 -61,-12 -61,-12 0,0 -24.5,-26 -31.75,-33.75 C 11.088,16.75 0,0 0,0"
             style="fill:#ffffff;fill-opacity:1;fill-rule:nonzero;stroke:none"
             id="path64" /></g><g
           id="g66"
           transform="translate(3429.3374,757.5479)"><path
             d="m 0,0 c -49.334,4.072 -116.188,4.744 -202.689,-43.1 -86.502,-47.843 -129.929,-99.183 -134.954,-105.542 47.308,-2.192 114.809,-0.785 114.809,-0.785 0,0 67.363,52.693 92.834,68.426 C -84.089,-52.642 1.052,-0.087 0,0"
             style="fill:#ffffff;fill-opacity:1;fill-rule:nonzero;stroke:none"
             id="path68" /></g><g
           id="g70"
           transform="translate(3059.3354,450.2129)"><path
             d="m 0,0 c -25.666,-22.666 -80.055,-88.244 -113.36,-97.955 -33.306,-9.711 -80.306,2.289 -105.306,21.622 -25.578,19.779 -41.371,36 -46.686,60.667 0,0 52.019,-28.274 84.019,-23.971 32,4.304 36,34.971 36,34.971 l 8.334,9.667 c 0,0 16.631,-4.004 58.315,-5.502 C -36.999,-1.999 0,0 0,0"
             style="fill:#ffffff;fill-opacity:1;fill-rule:nonzero;stroke:none"
             id="path72" /></g><g
           id="g74"
           transform="translate(2836.4194,446.1309)"><path
             d="M 0,0 C 5,6.75 14.506,11.855 21.003,14.053 13.75,20.5 -13,26.482 -13,26.482 c 0,0 -14.994,-3.982 -21.372,-17.982 -6.378,-14 -2,-14.25 -2,-14.25 0,0 9.122,-4.609 16.372,-7.305 7.25,-2.695 19,-7.2 19,-7.2 0,0 -4,13.505 1,20.255"
             style="fill:#ffffff;fill-opacity:1;fill-rule:nonzero;stroke:none"
             id="path76" /></g><g
           id="g78"
           transform="translate(2834.1704,496.0469)"><path
             d="m 0,0 c -23.895,6.979 -49,7.833 -74.348,-16.389 -20.278,-19.665 -9.903,-48.027 19.597,-60.027 -3.5,18.75 -2.853,28.477 9.392,46.762 C -33.501,-12.666 0,0 0,0"
             style="fill:#ffffff;fill-opacity:1;fill-rule:nonzero;stroke:none"
             id="path80" /></g><g
           id="g82"
           transform="translate(1118.3677,569.8857)"><path
             d="m 0,0 c -17.58,-7.803 -22.264,-9.364 -29.786,-9.81 1.227,23.555 14.962,43.768 13.72,62.412 -1.243,18.643 -16.22,30.988 -39.22,25.738 -17.793,-4.062 -402.193,-65.655 -640.597,-29.053 -106.817,16.401 -214.452,41.666 -250.76,56.238 -39.166,15.72 -33.416,87.97 10.83,69.432 0,0 35.503,-15.962 67.503,-41.962 32,-26 61.177,-71.15 89.755,-60.908 28.578,10.242 47.244,32.603 75.578,32.603 28.334,0 32.668,-0.115 32.668,-0.115 0,0 113,-66.814 176,-149.197 63,-82.383 140.578,-164.08 190,-182.384 0,0 51.126,-10.516 88.23,5.575 37.103,16.092 46.361,29.89 64.899,42.825 18.538,12.934 51.701,27.951 63.786,48.901 12.085,20.95 -13.415,77.2 -81.915,73.7 -68.5,-3.5 -87.668,-38.442 -92.334,-55.888 0,0 -182.852,177.851 -282.842,248.183 -107.157,75.372 -205.77,65.449 -245.13,65.077 -39.361,-0.372 -47.25,-11.636 -48.972,-24.629 -20.972,8.757 -66.368,9.055 -116,37.752 -49.632,28.698 -118.905,58.253 -156.313,14.046 -37.409,-44.207 74.591,-200.541 139.591,-240.541 65,-40 272.618,-92.053 424.809,-99.526 152.191,-7.474 433.191,11.621 433.191,11.621 0,0 -12.019,-57.444 -1.509,-80.52 10.509,-23.075 47.567,-45.527 87.205,-59.884 C 3.024,-81.673 0,0 0,0"
             style="fill:#000000;fill-opacity:1;fill-rule:nonzero;stroke:none"
             id="path84" /></g><g
           id="g86"
           transform="translate(1110.6812,549.7754)"><path
             d="m 0,0 c -15.257,-7.207 -25.98,-10.9 -38.927,-12.518 -13.696,-1.711 -24.529,-1.183 -30.971,14.069 -4.352,-9.504 -12.648,-37.146 -19.475,-66.462 12.001,-17.984 11.969,-23.824 12.395,-35.62 0.273,-7.53 -7.727,-19.28 -23.218,-30.213 -2.833,-4.989 -0.051,-10.611 0.673,-14.314 5.568,-28.504 36.234,-42.837 71.134,-61.725 C -24.389,-151.395 0,0 0,0"
             style="fill:#ffffff;fill-opacity:1;fill-rule:nonzero;stroke:none"
             id="path88" /></g><g
           id="g90"
           transform="translate(1085.2925,617.8799)"><path
             d="m 0,0 c -1.234,8.834 -8.285,19.469 -26.093,14.401 -17.807,-5.067 -209.14,-47.111 -484.14,-38.255 -275,8.855 -501.891,101.355 -539.196,122.855 0,0 44.863,-113.333 128.499,-150.931 89.375,-40.176 259.098,-80.555 390.397,-89.812 0,0 254.632,-11.407 310.299,10e-4 23.563,34.367 71.072,37.491 86.251,37.491 15.178,0 35.792,1 60.185,-18.592 0,0 22.066,94.402 38.232,106.177 12.583,9.166 10.832,-8.335 23.999,-5.501 C 1.6,-19.332 1.234,-8.834 0,0"
             style="fill:#ffffff;fill-opacity:1;fill-rule:nonzero;stroke:none"
             id="path92" /></g><g
           id="g94"
           transform="translate(332.147,677.8809)"><path
             d="M 0,0 C -0.088,-8.75 -4.152,-12.166 -22.745,0.917 -41.338,14 -77.838,42.5 -97.088,54 c -19.25,11.5 -21.35,16.041 -14,16.25 14.75,0.42 61,-12 61,-12 0,0 24.5,-26 31.75,-33.75 C -11.088,16.75 0,0 0,0"
             style="fill:#ffffff;fill-opacity:1;fill-rule:nonzero;stroke:none"
             id="path96" /></g><g
           id="g98"
           transform="translate(336.3911,757.5479)"><path
             d="m 0,0 c 49.334,4.072 116.188,4.744 202.689,-43.1 86.502,-47.843 129.929,-99.183 134.954,-105.542 -47.308,-2.192 -114.809,-0.785 -114.809,-0.785 0,0 -67.363,52.693 -92.834,68.426 C 84.089,-52.642 -1.052,-0.087 0,0"
             style="fill:#ffffff;fill-opacity:1;fill-rule:nonzero;stroke:none"
             id="path100" /></g><g
           id="g102"
           transform="translate(706.3931,450.2129)"><path
             d="m 0,0 c 25.666,-22.666 80.055,-88.244 113.36,-97.955 33.306,-9.711 80.306,2.289 105.306,21.622 25.578,19.779 41.371,36 46.686,60.667 0,0 -52.019,-28.274 -84.019,-23.971 -32,4.304 -36,34.971 -36,34.971 l -8.334,9.667 c 0,0 -16.631,-4.004 -58.315,-5.502 C 36.999,-1.999 0,0 0,0"
             style="fill:#ffffff;fill-opacity:1;fill-rule:nonzero;stroke:none"
             id="path104" /></g><g
           id="g106"
           transform="translate(929.3091,446.1309)"><path
             d="M 0,0 C -5,6.75 -14.506,11.855 -21.003,14.053 -13.75,20.5 13,26.482 13,26.482 c 0,0 14.994,-3.982 21.372,-17.982 6.378,-14 2,-14.25 2,-14.25 0,0 -9.122,-4.609 -16.372,-7.305 -7.25,-2.695 -19,-7.2 -19,-7.2 0,0 4,13.505 -1,20.255"
             style="fill:#ffffff;fill-opacity:1;fill-rule:nonzero;stroke:none"
             id="path108" /></g><g
           id="g110"
           transform="translate(931.5581,496.0469)"><path
             d="m 0,0 c 23.895,6.979 49,7.833 74.348,-16.389 20.278,-19.665 9.903,-48.027 -19.597,-60.027 3.5,18.75 2.853,28.477 -9.392,46.762 C 33.501,-12.666 0,0 0,0"
             style="fill:#ffffff;fill-opacity:1;fill-rule:nonzero;stroke:none"
             id="path112" /></g><g
           id="g114"
           transform="translate(1882.8359,1671.9644)"><path
             d="M 0,0 245.322,103.845 C 261.945,78.166 282.181,40.481 295.361,-1.75 316.167,-68.417 0.028,-73.615 0.028,-73.615 c 0,0 -316.138,5.198 -295.332,71.865 14.306,45.84 36.926,86.322 54.213,111.909 z"
             style="fill:#000000;fill-opacity:1;fill-rule:nonzero;stroke:none"
             id="path116" /></g></g></g><g
       id="g118"><g
         id="g120"
         clip-path="url(#clipPath124)"><g
           id="g126"
           transform="translate(1514.2925,1782.8647)"><path
             d="m 0,0 15.268,3.285 c 1.933,41.584 32.813,72.032 41.682,79.543 8.868,7.511 28.968,17.098 54.141,1.653 C 95.161,83.329 76.452,68.731 64.011,46.387 51.569,24.044 54.578,8.842 61.116,-7.124 75.04,21.711 95.389,23.927 104.9,26.722 c 9.511,2.795 20.908,-4.681 31.858,-20.257 -3.487,3.063 -16.063,3.63 -23.492,3.398 -7.431,-0.231 -40.507,-18.592 -13.003,-59.897 27.503,-41.305 73.502,-38.483 92.092,-24.528 18.589,13.955 34.364,39 34.364,39 15.51,9.213 20.035,-3.144 19.518,-11.404 -0.515,-8.261 2.092,-26.531 17.262,-45.327 14.661,-18.167 83.287,-61.8 96.003,-71.66 0,0 14.328,-0.4 20.588,-2.954 8.103,-3.307 12.074,-12.44 14.182,-21.755 5.829,-25.758 1.023,-51.167 -22.389,-60.629 -23.411,-9.461 -24.67,19.051 -21.892,32.497 2.777,13.445 -5.864,19.721 -32.732,14.274 -26.867,-5.448 -35.905,-24.842 -41.91,-56.745 -5.698,-30.268 -1.204,-50.966 15.975,-58.009 17.181,-7.041 37.928,19.46 42.351,23.704 1.691,-2.827 7.144,-6.904 16.552,-6.93 -6.227,-14.456 -21.603,-28.089 -35.745,-63.558 -14.031,-35.189 -3.331,-100.039 25.132,-139.361 28.464,-39.322 58.103,-36.005 74.718,-27.242 16.613,8.762 13.958,33.285 15.062,45.538 13.916,-1.571 21.075,-18.098 26.912,-34.785 5.838,-16.687 -1.534,-27.103 -17.557,-35.543 -16.023,-8.442 -25.682,-8.53 -41.46,-7.507 -2.794,-16.138 3.495,-27.366 17.744,-42.452 13.913,-14.728 17.025,-24.26 -1.48,-51.075 -18.504,-26.814 -95.007,-57.509 -141.518,-76.01 -46.51,-18.5 -72.936,-37.61 -115.59,-72.622 -52.661,16.491 -84.32,24.314 -134.375,24.05 -50.054,-0.263 -132.485,-0.451 -159.684,17.483 -27.199,17.934 -27.885,27.937 -20.499,46.804 7.561,19.323 9.188,32.09 0.554,46.007 -14.247,-6.857 -23.235,-10.392 -41.254,-8.565 -18.018,1.825 -28.752,8.722 -29.589,26.381 -0.837,17.659 -0.388,35.665 11.927,42.332 5.613,-10.948 12.334,-34.681 31.019,-36.583 18.688,-1.903 47.412,6.12 59.079,53.24 11.666,47.12 -2.698,111.258 -28.886,138.632 -26.395,27.591 -45.758,34.475 -56.945,45.547 8.713,3.547 12.243,9.369 12.753,12.624 5.689,-2.279 34.851,-19.082 48.144,-6.119 13.293,12.964 9.707,33.839 -6.91,59.77 -17.515,27.332 -33.158,41.931 -60.11,36.921 -26.953,-5.011 -32.615,-14.066 -25.006,-25.493 7.611,-11.427 17.122,-38.336 -8.129,-38.331 -25.252,0.006 -39.223,21.766 -43.465,47.833 -1.534,9.427 -1.272,19.382 5.004,25.483 4.848,4.713 17.984,10.45 17.984,10.45 8.097,13.904 55.389,80.061 62.18,102.397 7.028,23.109 2.604,41.026 -0.968,48.492 -3.573,7.466 -4.003,20.619 13.827,17.884 0,0 24.006,-17.315 46.468,-23.293 22.463,-5.978 66.173,8.631 76.207,57.231 10.034,48.599 -27.512,53.237 -34.489,50.669 -6.975,-2.567 -18.425,-7.803 -20.51,-11.949 4.321,18.543 12.087,29.743 21.954,30.713 9.866,0.971 29.564,6.536 53.272,-14.986 0.084,17.252 -2.819,32.475 -22.723,48.534 -19.904,16.058 -42.717,22.588 -57.92,17.691 17.557,23.747 39.785,22.385 50.82,18.741 11.036,-3.643 51.072,-20.311 68.437,-58.145 z"
             style="fill:#ffffff;fill-opacity:1;fill-rule:nonzero;stroke:none"
             id="path128" /></g><g
           id="g130"
           transform="translate(1514.2925,1782.8647)"><path
             d="m 0,0 15.268,3.285 c 1.933,41.584 32.813,72.032 41.682,79.543 8.868,7.511 28.968,17.098 54.141,1.653 C 95.161,83.329 76.452,68.731 64.011,46.387 51.569,24.044 54.578,8.842 61.116,-7.124 75.04,21.711 95.389,23.927 104.9,26.722 c 9.511,2.795 20.908,-4.681 31.858,-20.257 -3.487,3.063 -16.063,3.63 -23.492,3.398 -7.431,-0.231 -40.507,-18.592 -13.003,-59.897 27.503,-41.305 73.502,-38.483 92.092,-24.528 18.589,13.955 34.364,39 34.364,39 15.51,9.213 20.035,-3.144 19.518,-11.404 -0.515,-8.261 2.092,-26.531 17.262,-45.327 14.661,-18.167 83.287,-61.8 96.003,-71.66 0,0 14.328,-0.4 20.588,-2.954 8.103,-3.307 12.074,-12.44 14.182,-21.755 5.829,-25.758 1.023,-51.167 -22.389,-60.629 -23.411,-9.461 -24.67,19.051 -21.892,32.497 2.777,13.445 -5.864,19.721 -32.732,14.274 -26.867,-5.448 -35.905,-24.842 -41.91,-56.745 -5.698,-30.268 -1.204,-50.966 15.975,-58.009 17.181,-7.041 37.928,19.46 42.351,23.704 1.691,-2.827 7.144,-6.904 16.552,-6.93 -6.227,-14.456 -21.603,-28.089 -35.745,-63.558 -14.031,-35.189 -3.331,-100.039 25.132,-139.361 28.464,-39.322 58.103,-36.005 74.718,-27.242 16.613,8.762 13.958,33.285 15.062,45.538 13.916,-1.571 21.075,-18.098 26.912,-34.785 5.838,-16.687 -1.534,-27.103 -17.557,-35.543 -16.023,-8.442 -25.682,-8.53 -41.46,-7.507 -2.794,-16.138 3.495,-27.366 17.744,-42.452 13.913,-14.728 17.025,-24.26 -1.48,-51.075 -18.504,-26.814 -95.007,-57.509 -141.518,-76.01 -46.51,-18.5 -72.936,-37.61 -115.59,-72.622 -52.661,16.491 -84.32,24.314 -134.375,24.05 -50.054,-0.263 -132.485,-0.451 -159.684,17.483 -27.199,17.934 -27.885,27.937 -20.499,46.804 7.561,19.323 9.188,32.09 0.554,46.007 -14.247,-6.857 -23.235,-10.392 -41.254,-8.565 -18.018,1.825 -28.752,8.722 -29.589,26.381 -0.837,17.659 -0.388,35.665 11.927,42.332 5.613,-10.948 12.334,-34.681 31.019,-36.583 18.688,-1.903 47.412,6.12 59.079,53.24 11.666,47.12 -2.698,111.258 -28.886,138.632 -26.395,27.591 -45.758,34.475 -56.945,45.547 8.713,3.547 12.243,9.369 12.753,12.624 5.689,-2.279 34.851,-19.082 48.144,-6.119 13.293,12.964 9.707,33.839 -6.91,59.77 -17.515,27.332 -33.158,41.931 -60.11,36.921 -26.953,-5.011 -32.615,-14.066 -25.006,-25.493 7.611,-11.427 17.122,-38.336 -8.129,-38.331 -25.252,0.006 -39.223,21.766 -43.465,47.833 -1.534,9.427 -1.272,19.382 5.004,25.483 4.848,4.713 17.984,10.45 17.984,10.45 8.097,13.904 55.389,80.061 62.18,102.397 7.028,23.109 2.604,41.026 -0.968,48.492 -3.573,7.466 -4.003,20.619 13.827,17.884 0,0 24.006,-17.315 46.468,-23.293 22.463,-5.978 66.173,8.631 76.207,57.231 10.034,48.599 -27.512,53.237 -34.489,50.669 -6.975,-2.567 -18.425,-7.803 -20.51,-11.949 4.321,18.543 12.087,29.743 21.954,30.713 9.866,0.971 29.564,6.536 53.272,-14.986 0.084,17.252 -2.819,32.475 -22.723,48.534 -19.904,16.058 -42.717,22.588 -57.92,17.691 17.557,23.747 39.785,22.385 50.82,18.741 11.036,-3.643 51.072,-20.311 68.437,-58.145 z"
             style="fill:none;stroke:#000000;stroke-width:10;stroke-linecap:butt;stroke-linejoin:round;stroke-miterlimit:10;stroke-dasharray:none;stroke-opacity:1"
             id="path132" /></g><g
           id="g134"
           transform="translate(1935.9478,1169.5605)"><path
             d="m 0,0 c -1.807,-7.317 -25.627,-24.5 -38.464,-31.833 -12.837,-7.334 -12.576,4.432 -15.513,14.303 -4.282,-12.038 -26.97,-27.652 -36.269,-33.534 -9.299,-5.882 5.451,37.478 0.87,33.532 -4.582,-3.947 -15.484,-12.22 -31.032,-33.188 -17.413,-23.549 -34.594,-34.065 -68.661,-47.476 -34.068,-13.411 -51.247,-22.862 -84.033,-53.002 -41.687,15.669 -61.156,17.999 -97.766,17.676 -36.611,-0.323 -56.48,2.994 -81.444,18.309 -22.269,13.619 -35.476,17.207 -41.203,19.15 -5.725,1.944 24.189,-32.736 13.365,-30.765 -10.826,1.972 -37.71,7.953 -46.189,17.511 0.974,-10.252 5.621,-21.064 -9.027,-19.072 -14.65,1.993 -43.171,9.005 -47.587,15.113"
             style="fill:#ffffff;fill-opacity:1;fill-rule:nonzero;stroke:#000000;stroke-width:10;stroke-linecap:butt;stroke-linejoin:round;stroke-miterlimit:10;stroke-dasharray:none;stroke-opacity:1"
             id="path136" /></g><g
           id="g138"
           transform="translate(1224.3657,1485.7603)"><path
             d="m 0,0 c 44.527,31.28 93.907,23.557 134.368,-1.18 40.462,-24.736 77.612,-124.945 75.081,-209.865 -2.532,-84.921 -17.276,-130.865 -77.081,-162.623"
             style="fill:none;stroke:#000000;stroke-width:10;stroke-linecap:butt;stroke-linejoin:round;stroke-miterlimit:10;stroke-dasharray:none;stroke-opacity:1"
             id="path140" /></g><g
           id="g142"
           transform="translate(1894.3823,1615.9541)"><path
             d="m 0,0 c -53,12.329 -95.895,-13.324 -124.147,-51.413 -28.254,-38.088 -25.175,-144.918 8.974,-222.711 34.15,-77.793 65.027,-114.872 132.372,-121.923"
             style="fill:none;stroke:#000000;stroke-width:10;stroke-linecap:butt;stroke-linejoin:round;stroke-miterlimit:10;stroke-dasharray:none;stroke-opacity:1"
             id="path144" /></g><g
           id="g146"
           transform="translate(1576.0503,1751.6133)"><path
             d="m 0,0 c -16.727,2.533 -42.025,0.991 -55.374,-1.603 -13.349,-2.594 -37.384,-10.638 -51.944,-19.251"
             style="fill:#ffffff;fill-opacity:1;fill-rule:nonzero;stroke:#000000;stroke-width:10;stroke-linecap:butt;stroke-linejoin:round;stroke-miterlimit:10;stroke-dasharray:none;stroke-opacity:1"
             id="path148" /></g><g
           id="g150"
           transform="translate(1760.8481,1730.8032)"><path
             d="m 0,0 c -11.892,-22.685 -50.915,-57.772 -91.406,-56.472 -40.491,1.3 -76.57,29.69 -87.5,57.108 -10.619,26.638 -6.533,44.302 -6.533,44.302 0,0 -35.16,7.074 -60.164,2.215 -24.801,-4.819 -54.955,-24.584 -54.955,-24.584 0,0 10.405,-14.848 10.534,-43.525 0.131,-29.517 -22.689,-69.351 -59.747,-85.72 -37.058,-16.369 -86.382,1.551 -105.903,18.132"
             style="fill:none;stroke:#000000;stroke-width:10;stroke-linecap:butt;stroke-linejoin:round;stroke-miterlimit:10;stroke-dasharray:none;stroke-opacity:1"
             id="path152" /></g><g
           id="g154"
           transform="translate(1515.2456,1777.9565)"><path
             d="m 0,0 c 8.37,1.626 14.314,8.193 14.314,8.193 7.7,19.716 -0.993,67.944 -10.514,95.975 -9.522,28.033 -26.218,40.762 -31.753,39.687 -5.535,-1.076 -16.248,-19.131 -14.579,-48.689 1.668,-29.558 11.67,-77.531 26.191,-92.93 0,0 7.972,-3.862 16.341,-2.236"
             style="fill:#ffffff;fill-opacity:1;fill-rule:nonzero;stroke:none"
             id="path156" /></g><g
           id="g158"
           transform="translate(1515.2456,1777.9565)"><path
             d="m 0,0 c 8.37,1.626 14.314,8.193 14.314,8.193 7.7,19.716 -0.993,67.944 -10.514,95.975 -9.522,28.033 -26.218,40.762 -31.753,39.687 -5.535,-1.076 -16.248,-19.131 -14.579,-48.689 1.668,-29.558 11.67,-77.531 26.191,-92.93 0,0 7.972,-3.862 16.341,-2.236 z"
             style="fill:none;stroke:#000000;stroke-width:10;stroke-linecap:butt;stroke-linejoin:miter;stroke-miterlimit:10;stroke-dasharray:none;stroke-opacity:1"
             id="path160" /></g><g
           id="g162"
           transform="translate(2251.436,1782.8647)"><path
             d="m 0,0 -15.268,3.285 c -1.933,41.584 -32.813,72.032 -41.682,79.543 -8.868,7.511 -28.968,17.098 -54.141,1.653 15.93,-1.152 34.639,-15.75 47.08,-38.094 12.442,-22.343 9.433,-37.545 2.895,-53.511 -13.924,28.835 -34.273,31.051 -43.784,33.846 -9.511,2.795 -20.908,-4.681 -31.858,-20.257 3.487,3.063 16.063,3.63 23.492,3.398 7.431,-0.231 40.507,-18.592 13.003,-59.897 -27.503,-41.305 -73.502,-38.483 -92.092,-24.528 -18.589,13.955 -34.364,39 -34.364,39 -15.51,9.213 -20.035,-3.144 -19.518,-11.404 0.515,-8.261 -2.092,-26.531 -17.262,-45.327 -14.661,-18.167 -83.287,-61.8 -96.003,-71.66 0,0 -14.328,-0.4 -20.588,-2.954 -8.103,-3.307 -12.075,-12.44 -14.182,-21.755 -5.829,-25.758 -1.023,-51.167 22.389,-60.629 23.411,-9.461 24.67,19.051 21.892,32.497 -2.777,13.445 5.864,19.721 32.732,14.274 26.867,-5.448 35.905,-24.842 41.91,-56.745 5.698,-30.268 1.204,-50.966 -15.975,-58.009 -17.181,-7.041 -37.928,19.46 -42.351,23.704 -1.691,-2.827 -7.144,-6.904 -16.552,-6.93 6.227,-14.456 21.603,-28.089 35.745,-63.558 14.031,-35.189 3.331,-100.039 -25.132,-139.361 -28.464,-39.322 -58.103,-36.005 -74.718,-27.242 -16.613,8.762 -13.958,33.285 -15.062,45.538 -13.916,-1.571 -21.075,-18.098 -26.912,-34.785 -5.838,-16.687 1.533,-27.103 17.557,-35.543 16.023,-8.442 25.682,-8.53 41.459,-7.507 2.794,-16.138 -3.495,-27.366 -17.743,-42.452 -13.914,-14.728 -17.025,-24.26 1.48,-51.075 18.504,-26.814 95.007,-57.509 141.518,-76.01 46.51,-18.5 72.936,-37.61 115.59,-72.622 52.661,16.491 84.32,24.314 134.375,24.05 50.054,-0.263 132.485,-0.451 159.684,17.483 27.199,17.934 27.885,27.937 20.499,46.804 -7.561,19.323 -9.188,32.09 -0.554,46.007 14.247,-6.857 23.235,-10.392 41.254,-8.565 18.018,1.825 28.752,8.722 29.589,26.381 0.837,17.659 0.388,35.665 -11.927,42.332 -5.613,-10.948 -12.334,-34.681 -31.019,-36.583 -18.688,-1.903 -47.412,6.12 -59.079,53.24 -11.666,47.12 2.698,111.258 28.886,138.632 26.395,27.591 45.758,34.475 56.945,45.547 -8.713,3.547 -12.243,9.369 -12.753,12.624 -5.689,-2.279 -34.851,-19.082 -48.144,-6.119 -13.293,12.964 -9.707,33.839 6.91,59.77 17.515,27.332 33.158,41.931 60.11,36.921 26.953,-5.011 32.615,-14.066 25.006,-25.493 -7.611,-11.427 -17.122,-38.336 8.129,-38.331 25.252,0.006 39.223,21.766 43.465,47.833 1.534,9.427 1.272,19.382 -5.004,25.483 -4.848,4.713 -17.984,10.45 -17.984,10.45 -8.097,13.904 -55.389,80.061 -62.18,102.397 -7.028,23.109 -2.604,41.026 0.968,48.492 3.573,7.466 4.003,20.619 -13.827,17.884 0,0 -24.006,-17.315 -46.468,-23.293 -22.463,-5.978 -66.173,8.631 -76.207,57.231 -10.034,48.599 27.512,53.237 34.489,50.669 6.975,-2.567 18.425,-7.803 20.51,-11.949 -4.321,18.543 -12.087,29.743 -21.954,30.713 -9.866,0.971 -29.564,6.536 -53.272,-14.986 -0.084,17.252 2.819,32.475 22.723,48.534 19.904,16.058 42.717,22.588 57.92,17.691 C 117.088,60.479 94.86,59.117 83.825,55.473 72.789,51.83 32.753,35.162 15.388,-2.672 Z"
             style="fill:#ffffff;fill-opacity:1;fill-rule:nonzero;stroke:none"
             id="path164" /></g><g
           id="g166"
           transform="translate(2251.436,1782.8647)"><path
             d="m 0,0 -15.268,3.285 c -1.933,41.584 -32.813,72.032 -41.682,79.543 -8.868,7.511 -28.968,17.098 -54.141,1.653 15.93,-1.152 34.639,-15.75 47.08,-38.094 12.442,-22.343 9.433,-37.545 2.895,-53.511 -13.924,28.835 -34.273,31.051 -43.784,33.846 -9.511,2.795 -20.908,-4.681 -31.858,-20.257 3.487,3.063 16.063,3.63 23.492,3.398 7.431,-0.231 40.507,-18.592 13.003,-59.897 -27.503,-41.305 -73.502,-38.483 -92.092,-24.528 -18.589,13.955 -34.364,39 -34.364,39 -15.51,9.213 -20.035,-3.144 -19.518,-11.404 0.515,-8.261 -2.092,-26.531 -17.262,-45.327 -14.661,-18.167 -83.287,-61.8 -96.003,-71.66 0,0 -14.328,-0.4 -20.588,-2.954 -8.103,-3.307 -12.075,-12.44 -14.182,-21.755 -5.829,-25.758 -1.023,-51.167 22.389,-60.629 23.411,-9.461 24.67,19.051 21.892,32.497 -2.777,13.445 5.864,19.721 32.732,14.274 26.867,-5.448 35.905,-24.842 41.91,-56.745 5.698,-30.268 1.204,-50.966 -15.975,-58.009 -17.181,-7.041 -37.928,19.46 -42.351,23.704 -1.691,-2.827 -7.144,-6.904 -16.552,-6.93 6.227,-14.456 21.603,-28.089 35.745,-63.558 14.031,-35.189 3.331,-100.039 -25.132,-139.361 -28.464,-39.322 -58.103,-36.005 -74.718,-27.242 -16.613,8.762 -13.958,33.285 -15.062,45.538 -13.916,-1.571 -21.075,-18.098 -26.912,-34.785 -5.838,-16.687 1.533,-27.103 17.557,-35.543 16.023,-8.442 25.682,-8.53 41.459,-7.507 2.794,-16.138 -3.495,-27.366 -17.743,-42.452 -13.914,-14.728 -17.025,-24.26 1.48,-51.075 18.504,-26.814 95.007,-57.509 141.518,-76.01 46.51,-18.5 72.936,-37.61 115.59,-72.622 52.661,16.491 84.32,24.314 134.375,24.05 50.054,-0.263 132.485,-0.451 159.684,17.483 27.199,17.934 27.885,27.937 20.499,46.804 -7.561,19.323 -9.188,32.09 -0.554,46.007 14.247,-6.857 23.235,-10.392 41.254,-8.565 18.018,1.825 28.752,8.722 29.589,26.381 0.837,17.659 0.388,35.665 -11.927,42.332 -5.613,-10.948 -12.334,-34.681 -31.019,-36.583 -18.688,-1.903 -47.412,6.12 -59.079,53.24 -11.666,47.12 2.698,111.258 28.886,138.632 26.395,27.591 45.758,34.475 56.945,45.547 -8.713,3.547 -12.243,9.369 -12.753,12.624 -5.689,-2.279 -34.851,-19.082 -48.144,-6.119 -13.293,12.964 -9.707,33.839 6.91,59.77 17.515,27.332 33.158,41.931 60.11,36.921 26.953,-5.011 32.615,-14.066 25.006,-25.493 -7.611,-11.427 -17.122,-38.336 8.129,-38.331 25.252,0.006 39.223,21.766 43.465,47.833 1.534,9.427 1.272,19.382 -5.004,25.483 -4.848,4.713 -17.984,10.45 -17.984,10.45 -8.097,13.904 -55.389,80.061 -62.18,102.397 -7.028,23.109 -2.604,41.026 0.968,48.492 3.573,7.466 4.003,20.619 -13.827,17.884 0,0 -24.006,-17.315 -46.468,-23.293 -22.463,-5.978 -66.173,8.631 -76.207,57.231 -10.034,48.599 27.512,53.237 34.489,50.669 6.975,-2.567 18.425,-7.803 20.51,-11.949 -4.321,18.543 -12.087,29.743 -21.954,30.713 -9.866,0.971 -29.564,6.536 -53.272,-14.986 -0.084,17.252 2.819,32.475 22.723,48.534 19.904,16.058 42.717,22.588 57.92,17.691 C 117.088,60.479 94.86,59.117 83.825,55.473 72.789,51.83 32.753,35.162 15.388,-2.672 Z"
             style="fill:none;stroke:#000000;stroke-width:10;stroke-linecap:butt;stroke-linejoin:round;stroke-miterlimit:10;stroke-dasharray:none;stroke-opacity:1"
             id="path168" /></g><g
           id="g170"
           transform="translate(1829.7803,1169.5605)"><path
             d="m 0,0 c 1.807,-7.317 25.627,-24.5 38.464,-31.833 12.837,-7.334 12.577,4.432 15.513,14.303 4.282,-12.038 26.971,-27.652 36.27,-33.534 9.298,-5.882 -5.452,37.478 -0.871,33.532 4.582,-3.947 15.485,-12.22 31.033,-33.188 17.413,-23.549 34.593,-34.065 68.661,-47.476 34.067,-13.411 51.247,-22.862 84.032,-53.002 41.688,15.669 61.156,17.999 97.767,17.676 36.61,-0.323 56.479,2.994 81.443,18.309 22.27,13.619 35.477,17.207 41.203,19.15 5.726,1.944 -24.188,-32.736 -13.364,-30.765 10.825,1.972 37.71,7.953 46.188,17.511 -0.973,-10.252 -5.621,-21.064 9.028,-19.072 14.649,1.993 43.171,9.005 47.587,15.113"
             style="fill:#ffffff;fill-opacity:1;fill-rule:nonzero;stroke:#000000;stroke-width:10;stroke-linecap:butt;stroke-linejoin:round;stroke-miterlimit:10;stroke-dasharray:none;stroke-opacity:1"
             id="path172" /></g><g
           id="g174"
           transform="translate(2541.3628,1485.7603)"><path
             d="m 0,0 c -44.527,31.28 -93.907,23.557 -134.368,-1.18 -40.462,-24.736 -77.612,-124.945 -75.081,-209.865 2.532,-84.921 17.276,-130.865 77.081,-162.623"
             style="fill:none;stroke:#000000;stroke-width:10;stroke-linecap:butt;stroke-linejoin:round;stroke-miterlimit:10;stroke-dasharray:none;stroke-opacity:1"
             id="path176" /></g><g
           id="g178"
           transform="translate(1871.3457,1615.9541)"><path
             d="m 0,0 c 53,12.329 95.895,-13.324 124.148,-51.413 28.254,-38.088 25.175,-144.918 -8.975,-222.711 -34.149,-77.793 -65.026,-114.872 -132.372,-121.923"
             style="fill:none;stroke:#000000;stroke-width:10;stroke-linecap:butt;stroke-linejoin:round;stroke-miterlimit:10;stroke-dasharray:none;stroke-opacity:1"
             id="path180" /></g><g
           id="g182"
           transform="translate(2189.6782,1751.6133)"><path
             d="m 0,0 c 16.727,2.533 42.025,0.991 55.374,-1.603 13.349,-2.594 37.384,-10.638 51.944,-19.251"
             style="fill:#ffffff;fill-opacity:1;fill-rule:nonzero;stroke:#000000;stroke-width:10;stroke-linecap:butt;stroke-linejoin:round;stroke-miterlimit:10;stroke-dasharray:none;stroke-opacity:1"
             id="path184" /></g><g
           id="g186"
           transform="translate(2004.8804,1730.8032)"><path
             d="m 0,0 c 11.892,-22.685 50.915,-57.772 91.406,-56.472 40.491,1.3 76.57,29.69 87.5,57.108 10.619,26.638 6.533,44.302 6.533,44.302 0,0 35.16,7.074 60.164,2.215 24.801,-4.819 54.955,-24.584 54.955,-24.584 0,0 -10.405,-14.848 -10.534,-43.525 -0.131,-29.517 22.689,-69.351 59.747,-85.72 37.058,-16.369 86.382,1.551 105.903,18.132"
             style="fill:none;stroke:#000000;stroke-width:10;stroke-linecap:butt;stroke-linejoin:round;stroke-miterlimit:10;stroke-dasharray:none;stroke-opacity:1"
             id="path188" /></g><g
           id="g190"
           transform="translate(2250.4829,1777.9565)"><path
             d="m 0,0 c -8.37,1.626 -14.314,8.193 -14.314,8.193 -7.7,19.716 0.993,67.944 10.514,95.975 9.522,28.033 26.218,40.762 31.753,39.687 5.535,-1.076 16.248,-19.131 14.579,-48.689 C 40.864,65.608 30.862,17.635 16.341,2.236 16.341,2.236 8.369,-1.626 0,0"
             style="fill:#ffffff;fill-opacity:1;fill-rule:nonzero;stroke:none"
             id="path192" /></g><g
           id="g194"
           transform="translate(2250.4829,1777.9565)"><path
             d="m 0,0 c -8.37,1.626 -14.314,8.193 -14.314,8.193 -7.7,19.716 0.993,67.944 10.514,95.975 9.522,28.033 26.218,40.762 31.753,39.687 5.535,-1.076 16.248,-19.131 14.579,-48.689 C 40.864,65.608 30.862,17.635 16.341,2.236 16.341,2.236 8.369,-1.626 0,0 Z"
             style="fill:none;stroke:#000000;stroke-width:10;stroke-linecap:butt;stroke-linejoin:miter;stroke-miterlimit:10;stroke-dasharray:none;stroke-opacity:1"
             id="path196" /></g></g></g><g
       id="g198"><g
         id="g200"
         clip-path="url(#clipPath204)"><g
           id="g206"
           transform="translate(1882.8643,2019.2144)"><path
             d="M 0,0 430.283,-159.538 0,-341.75 -398.945,-159.538 Z"
             style="fill:#000000;fill-opacity:1;fill-rule:nonzero;stroke:none"
             id="path208" /></g><g
           id="g210"
           transform="translate(1917.3647,1859.6763)"><path
             d="m 0,0 c 0,-9.996 -15.447,-18.1 -34.5,-18.1 -19.055,0 -34.501,8.104 -34.501,18.1 0,9.996 15.446,18.1 34.501,18.1 C -15.447,18.1 0,9.996 0,0"
             style="fill:#ffffff;fill-opacity:1;fill-rule:nonzero;stroke:none"
             id="path212" /></g><g
           id="g214"
           transform="translate(1961.7222,1680.7661)"><path
             d="m 0,0 c -12.364,86.205 -32.995,151.809 -55.187,175.491 l 7.297,6.838 C -23.998,156.832 -2.935,90.894 9.898,1.42 Z"
             style="fill:#ffffff;fill-opacity:1;fill-rule:nonzero;stroke:none"
             id="path216" /></g><g
           id="g218"
           transform="translate(1992.5649,1382.834)"><path
             d="m 0,0 c 2.104,-21.703 16.713,-39.691 25.271,-63.287 5.833,-16.08 4.139,-21.115 2.35,-24.67 0,0 -1.766,2.337 -2.683,3.087 -0.917,0.75 0.167,-2.173 0.167,-3.087 l -3.334,3.92 c 0,0 -1.104,-1.104 -0.979,-2.291 -1.438,1.625 -2.438,1.875 -2.875,0.375 -1.202,0.853 -3.271,3.666 -3.271,3.666 0,0 -1.341,-0.915 -1.757,-1.54 -0.924,0.793 -3.645,4.448 -4.19,4.56 -0.179,0.038 0.005,-2.305 -0.178,-2.27 -0.902,0.177 -2.203,2.711 -3.167,2.839 -0.587,0.077 -1.25,-1.63 -1.25,-1.63 0,0 -1.149,1.673 -2.916,2.25 -0.706,0.23 -1.996,-3.369 -2.334,-3 -0.625,0.684 -0.98,2.66 -1.792,2.666 -0.47,0.004 -0.589,-2.132 -1.083,-2.166 -0.493,-0.034 -1.36,2.035 -1.871,1.967 -0.129,-2.78 -0.749,-0.063 -1.691,-0.342 -0.396,-0.118 -0.541,-2.201 -1.021,-2.334 -0.426,-0.118 -1.416,1.5 -1.416,1.5 l -0.833,-1.708 -2.042,1.375 c 0,0 -0.796,-1.826 -1.334,-2.208 -0.361,-0.258 -1.274,0.972 -1.5,0.874 -0.254,-0.109 -0.167,-0.726 -0.416,-0.833 -0.237,-0.102 -0.809,0.307 -1.042,0.207 -0.289,-0.123 -0.468,-1.212 -0.75,-1.332 -0.433,-0.183 -0.864,0.872 -1.292,0.834 -0.39,-0.035 -1.041,-1.5 -1.041,-1.5 0,0 -1.084,0.246 -1.533,0.062 -6.795,-2.794 -10.485,-4.028 -12.476,-4.564 -0.411,-0.111 -1.029,-0.54 -1.029,-0.54 0,0 -0.588,0.18 -0.771,0.161 -0.398,-0.042 -0.484,0.006 -0.484,0.006 0,0 -4.376,6 -5.021,15 -0.645,9 2.725,50.333 1.873,63.333 -0.852,13 -17.551,57.041 -24.201,64.521 -6.651,7.479 25.518,33.942 25.518,33.942 0,0 13.165,84.599 12.821,120.599 -0.345,36 -12.821,90.2 -12.821,90.2 l 23.248,1.155 c 0,0 0.556,-40.072 12.012,-71.58 C 8.322,196.709 4.617,120.704 -3.473,97.042 -11.563,73.381 -5.117,66.742 -2.018,43.442 1.082,20.143 -2.104,21.703 0,0"
             style="fill:#000000;fill-opacity:1;fill-rule:nonzero;stroke:none"
             id="path220" /></g><g
           id="g222"
           transform="translate(350.7944,878.0059)"><path
             d="M 0,0 C 0,0 3.844,16.626 29.125,16.686 55.656,16.748 56.25,-3.625 56.25,-3.625 56.25,-3.625 6.125,-0.5 0,0 m 119.5,-5.625 c -5,0.125 -43.875,1.75 -50.25,2.753 C 66.875,12.756 45.375,26.125 29.5,27.375 13.625,28.625 -5.25,22.25 -9.25,14.625 -13.25,7 -20.625,-15.5 -13.5,-16.625 c 7.125,-1.125 6.875,4.375 8.75,5 1.875,0.625 118.125,-5.125 123.252,-4.943 5.128,0.181 5.998,10.818 0.998,10.943"
             style="fill:#000000;fill-opacity:1;fill-rule:nonzero;stroke:none"
             id="path224" /></g><g
           id="g226"
           transform="translate(467.3779,909.5762)"><path
             d="m 0,0 c -13.042,0.637 -93.136,7.619 -101.135,8.619 -8,1 -9.157,-0.731 -12.157,-4.4 -3.921,-4.568 -7.416,-1.332 -7.416,1.502 0,2.834 0.166,11.669 0.958,13.376 0.691,1.49 119.888,-8.394 121.885,-8.53 1.997,-0.135 2.06,4.635 7.149,4.426 5.089,-0.209 5.383,-7.564 5.258,-9.689 C 14.417,3.179 13.042,-0.637 0,0"
             style="fill:#000000;fill-opacity:1;fill-rule:nonzero;stroke:none"
             id="path228" /></g><g
           id="g230"
           transform="translate(481.6694,938.1309)"><path
             d="m 0,0 c -4.875,-4 -24.563,-2.063 -28.833,0.5 -3.65,2.19 -2.5,6.25 0.25,8.666 2.75,2.416 12.75,2.334 21.5,0.334 C 1.667,7.5 4.095,3.36 0,0 m 21,22.75 c -3.5,1.167 -5.208,-3.292 -8.375,-5.125 -3.167,-1.833 -54.25,6.75 -68.792,5.886 C -70.226,22.675 -72.75,16.416 -74,12.916 -75.25,9.416 -75.667,0.749 -71.333,-1.334 -67,-3.417 -63.125,2.5 -62,4 c 1.125,1.5 -3.25,5.375 -0.125,8 3.125,2.625 16.083,0.667 20.208,0.667 0,0 -2.416,-10.552 -0.416,-14.677 2,-4.125 11.708,-9.365 21.208,-10.115 9.5,-0.75 20,0 28.5,3.125 8.5,3.125 7.708,15.166 7.292,17.749 3.416,0.5 5.666,1.75 6.75,4.084 C 22.5,15.167 24.5,21.583 21,22.75"
             style="fill:#000000;fill-opacity:1;fill-rule:nonzero;stroke:none"
             id="path232" /></g><g
           id="g234"
           transform="translate(506.1338,974.9355)"><path
             d="m 0,0 c -5.138,-3.656 -24.646,-0.371 -28.73,2.479 -3.491,2.437 -2.065,6.408 0.844,8.628 2.91,2.223 12.881,1.454 21.472,-1.143 C 2.179,7.367 4.317,3.071 0,0 m 22.514,21.253 c -3.411,1.404 -5.422,-2.927 -8.707,-4.538 -3.286,-1.611 -53.659,10.462 -68.225,10.598 -14.083,0.133 -17.032,-5.937 -18.519,-9.343 -1.488,-3.407 -2.499,-12.024 1.681,-14.4 4.18,-2.375 8.452,3.261 9.678,4.681 1.225,1.419 -2.873,5.585 0.425,7.989 3.298,2.405 16.091,-0.439 20.206,-0.722 0,0 -3.136,-10.363 -1.424,-14.615 1.712,-4.253 11.037,-10.148 20.463,-11.548 9.427,-1.401 19.953,-1.375 28.647,1.159 8.696,2.533 8.733,14.6 8.494,17.206 3.443,0.264 5.774,1.356 7.016,3.611 1.241,2.254 3.676,8.517 0.265,9.922"
             style="fill:#000000;fill-opacity:1;fill-rule:nonzero;stroke:none"
             id="path236" /></g><g
           id="g238"
           transform="translate(476.0444,1011.7559)"><path
             d="m 0,0 c 9.5,-2.75 49.125,-10.285 60.875,-9.83 11.75,0.455 11.75,3.58 12.25,7.33 0.5,3.75 -5.25,8.891 -8.25,8.57 C 61.875,5.75 63.58,0.625 57.228,0.875 50.875,1.125 12.125,7.875 9,10 c -3.125,2.125 -1.25,9.04 -7.75,9.77 -6.5,0.73 -5.875,-7.645 -8.875,-7.645 -3,0 -27.125,9.25 -32.5,7 -5.375,-2.25 -1.625,-9.5 3.5,-10.625 5.125,-1.125 17.173,-2.73 18.5,-4.5 1,-1.333 4.47,-6.211 7.125,-6.875 C -6,-4.125 0,0 0,0"
             style="fill:#000000;fill-opacity:1;fill-rule:nonzero;stroke:none"
             id="path240" /></g><g
           id="g242"
           transform="translate(524.2104,1049.0518)"><path
             d="m 0,0 c 0.292,6.496 -4.542,5.997 -12.708,5.996 -8.167,0 -15.009,-2.001 -18.588,-9.334 -3.579,-7.333 3.027,-15.873 16.088,-17.666 12.75,-1.75 21.75,-2.084 29.672,2.5 8.301,4.802 24.45,5.924 24.973,2.129 0.522,-3.796 -10.895,-5.629 -13.812,-8.046 -2.916,-2.416 -1.75,-8.583 2.084,-8.833 3.833,-0.25 21.25,6.917 23.75,12.417 2.5,5.5 -0.667,15.083 -7.917,16.333 -7.25,1.25 -22.166,2.583 -30.25,-1.584 -8.083,-4.166 -16.333,-6.332 -23,-6.249 -6.667,0.083 -10.01,2.632 -8.917,5.583 C -16.791,-2.254 -0.292,-6.496 0,0"
             style="fill:#000000;fill-opacity:1;fill-rule:nonzero;stroke:none"
             id="path244" /></g><g
           id="g246"
           transform="translate(562.0737,1062.9072)"><path
             d="m 0,0 c -9.063,1.906 -13.898,4.598 -15.366,6.726 -0.314,0.455 -0.53,0.894 -0.219,2.024 0.426,0.784 6.41,3.774 20.376,3.886 z M 47.929,10.64 C 46.096,8.14 47.096,-2.026 32.973,-2.693 19.152,-3.18 12.221,-0.589 12.221,-0.589 c 2.166,6.833 6.875,24.229 6.875,24.229 0,0 -42.212,4 -46.523,-11.666 -4.31,-15.667 17.69,-23.158 42.356,-25.496 24.667,-2.338 40.667,2.996 42.5,13.996 1.834,11 -7.666,12.666 -9.5,10.166"
             style="fill:#000000;fill-opacity:1;fill-rule:nonzero;stroke:none"
             id="path248" /></g><g
           id="g250"
           transform="translate(639.2007,1086.5913)"><path
             d="m 0,0 c 4.464,-0.237 9.719,5.457 12.719,3.79 3,-1.667 2.417,-11.667 -0.917,-13.167 -3.333,-1.5 -16.999,-2.666 -30.333,3 -13.333,5.667 -68.834,29 -75.5,28 -6.667,-1 -12,-3.5 -16.833,-0.833 -4.834,2.666 13.002,14.833 18.834,13.333 C -86.198,32.623 -3.969,0.21 0,0"
             style="fill:#000000;fill-opacity:1;fill-rule:nonzero;stroke:none"
             id="path252" /></g><g
           id="g254"
           transform="translate(601.8945,1117.2017)"><path
             d="m 0,0 c 4.025,3.304 14.535,12.139 18.78,11.284 4.245,-0.855 43.381,-23.579 52.75,-23.28 9.37,0.3 12.099,3.266 14.422,1.971 2.323,-1.296 1.823,-5.671 -1.677,-9.046 -3.5,-3.375 -15.323,-5.554 -22.123,-3.554 -6.799,2 -42.502,18.554 -47.752,18.929 C 9.15,-3.321 2.6,-4.946 0.25,-4.071 -2.1,-3.196 0,0 0,0"
             style="fill:#000000;fill-opacity:1;fill-rule:nonzero;stroke:none"
             id="path256" /></g><g
           id="g258"
           transform="translate(604.2944,1131.8809)"><path
             d="m 0,0 c 0,-3.313 -4.981,-6 -11.125,-6 -6.144,0 -11.125,2.687 -11.125,6 0,3.313 4.981,6 11.125,6 C -4.981,6 0,3.313 0,0"
             style="fill:#000000;fill-opacity:1;fill-rule:nonzero;stroke:none"
             id="path260" /></g><g
           id="g262"
           transform="translate(655.8169,1142.4907)"><path
             d="m 0,0 c 3.403,-0.15 65.438,-30.688 69.924,-33.842 4.487,-3.154 5.718,-7.785 2.886,-10.964 -2.832,-3.179 -6.912,-6.943 -10.81,-4.748 -3.897,2.194 -0.647,6.819 -3.397,8.694 -2.75,1.875 -53.125,26.5 -61.875,28.125 -8.75,1.625 -8.798,-3.055 -12.524,-1.652 -3.726,1.402 -3.649,5.624 -1.25,7.513 C -14.647,-4.985 -3.403,0.15 0,0"
             style="fill:#000000;fill-opacity:1;fill-rule:nonzero;stroke:none"
             id="path264" /></g><g
           id="g266"
           transform="translate(639.2593,1147.832)"><path
             d="m 0,0 c 0,-3.313 -4.981,-6 -11.125,-6 -6.144,0 -11.125,2.687 -11.125,6 0,3.313 4.981,6 11.125,6 C -4.981,6 0,3.313 0,0"
             style="fill:#000000;fill-opacity:1;fill-rule:nonzero;stroke:none"
             id="path268" /></g><g
           id="g270"
           transform="translate(650.5342,1163.3521)"><path
             d="m 0,0 c 4.857,-0.66 70.301,-36.517 77.801,-39.827 7.501,-3.311 9.464,-1.401 11.916,1.17 2.452,2.572 4.706,5.489 1.104,7.796 -3.602,2.306 -12.108,7.685 -12.108,7.685 0,0 48.232,1.003 53.148,2.223 4.917,1.221 4.282,8.206 0.861,8.761 -3.42,0.554 -48.67,-1.612 -51.087,-0.946 -2.416,0.667 -3.237,2.962 -3.095,7.341 0.158,4.888 0.917,13.883 -1.702,15.23 -2.619,1.346 -12.037,-0.57 -12.62,-2.237 -0.583,-1.667 0.418,-17.085 -0.916,-20.584 -1.333,-3.5 -9.202,1.126 -13.143,2.813 C 46.219,-8.888 13.552,11.696 8.719,12.529 3.885,13.362 -13.864,2.196 -15.698,0.362 -17.531,-1.471 -13.673,-3.366 -11.387,-2.8 -9.101,-2.233 -3.469,0.471 0,0"
             style="fill:#000000;fill-opacity:1;fill-rule:nonzero;stroke:none"
             id="path272" /></g><g
           id="g274"
           transform="translate(778.9492,1168.1763)"><path
             d="m 0,0 c -2.555,0.618 -17.53,6.788 -15.957,10.565 1.042,2.502 7.181,4.442 22.131,4.442 1.69,0 3.363,-0.037 4.984,-0.1 z M 55.524,6.712 C 52.502,7.682 48.72,5.455 46.97,2.705 45.22,-0.045 41.054,-2.716 32.304,-2.839 23.554,-2.962 11.261,-1.175 11.261,-1.175 l 17.437,23.296 c 0,0 -43.658,7.059 -53.679,-6.721 -9.559,-13.146 13.451,-23.695 13.451,-23.695 14.5,-5 51,-8.875 61.5,-0.5 11.609,9.259 8.575,14.537 5.554,15.507"
             style="fill:#000000;fill-opacity:1;fill-rule:nonzero;stroke:none"
             id="path276" /></g><g
           id="g278"
           transform="translate(835.8081,1231.6924)"><path
             d="m 0,0 c 1.465,-1.103 18.238,-10.362 34.861,-21.395 18.52,-12.292 34.334,-25.722 37.5,-25.696 2.927,0.025 10.656,4.771 10.703,7.275 0.047,2.504 -21.036,20.421 -21.036,20.421 0,0 69.837,-1.81 81.333,-2.024 11.496,-0.214 19.674,-0.608 22.5,1.857 2.827,2.466 6.75,8.875 3.75,9.75 -3,0.875 -85.75,-0.25 -90.875,2.125 -5.125,2.375 16,34.25 18.625,39.625 2.625,5.375 -10.125,10.25 -14.501,4.625 -4.537,-5.83 -30.499,-48.875 -30.499,-48.875 0,0 -36.969,22.684 -41.944,25.058 C 6.695,14.521 2.661,14.01 -1.197,10.641 -5.055,7.272 -3.098,2.331 0,0"
             style="fill:#000000;fill-opacity:1;fill-rule:nonzero;stroke:none"
             id="path280" /></g><g
           id="g282"
           transform="translate(1026.355,1228.6899)"><path
             d="m 0,0 c -8.802,-0.379 -16.071,2.395 -16.234,6.195 -0.163,3.8 6.84,7.187 15.642,7.566 C 8.21,14.141 15.479,11.367 15.642,7.567 15.805,3.767 8.802,0.379 0,0 m 43.189,5.762 c -4.125,-0.429 -7.424,1.609 -7.424,1.609 -3.334,1 -17.784,19.82 -32.454,25.523 -14.671,5.703 -40.509,-0.027 -47.96,-7.778 -2.275,-2.366 -3.037,-5.425 1.628,-5.254 4.666,0.171 13.919,5.245 21.544,6.412 7.243,1.108 14.625,-0.083 16.479,-3.833 0,0 -25.688,-11.084 -26.552,-18.584 -0.864,-7.5 8.364,-12.333 20.196,-12.993 11.831,-0.659 37.335,3.41 37.418,10.077 5.832,-2.895 15.75,-1.125 19.482,0.448 3.732,1.573 1.768,4.802 -2.357,4.373"
             style="fill:#000000;fill-opacity:1;fill-rule:nonzero;stroke:none"
             id="path284" /></g><g
           id="g286"
           transform="translate(1050.8569,1273.9434)"><path
             d="m 0,0 c 2.883,2.066 18.446,6.233 21.771,6.188 3.118,-0.043 5.867,-3.48 7.522,-5.119 4.155,6.22 10.446,10.009 21.855,11.075 11.41,1.066 25.842,-2.111 25.842,-2.111 0,0 5.319,10.918 21.074,12.314 16.082,1.424 27.204,0.757 34.893,-7.743 7.689,-8.5 10.191,-22.28 14.19,-24.307 3.999,-2.026 3.166,-0.135 6.499,0.669 3.333,0.805 4.993,-2.084 1.58,-5.473 -3.413,-3.389 -14.747,-5.056 -20.513,-2.421 -3.799,1.736 -13.646,20.862 -19.4,25.116 -5.75,4.25 -21.876,1.846 -24.25,0.625 -4.375,-2.25 -4.816,-8.071 1.842,-16.473 6.658,-8.403 9.988,-12.528 12.26,-13.028 2.273,-0.5 3.192,-3.221 0.209,-4.95 -2.984,-1.729 -12.811,-4.3 -15.436,-4.3 -2.625,0 -0.625,3.875 -2.375,5.875 -1.75,2 -15.375,21 -23.25,24.126 -7.875,3.125 -24.023,1.25 -24.023,-4.501 0,-5.75 8.95,-15.322 12.898,-19.75 3.947,-4.427 8.258,-5.614 6.25,-8.067 -2.009,-2.453 -10.584,-6.919 -15.209,-6.224 -4.625,0.694 -12.5,16.208 -19.25,23.083 C 18.229,-8.521 11.87,-3.313 6.688,-3.188 1.5,-3.063 -3.464,-2.482 0,0"
             style="fill:#000000;fill-opacity:1;fill-rule:nonzero;stroke:none"
             id="path288" /></g><g
           id="g290"
           transform="translate(1229.0864,1302.3975)"><path
             d="m 0,0 c 7.072,3.685 22.583,-3.35 22.583,-3.35 0,0 -20.125,-9.358 -24.25,-11 0,0 -5.75,10.35 1.667,14.35 m 53.811,-18.071 c -2.398,1.696 -6.853,0.054 -8.419,-1.758 -1.566,-1.812 -3.434,-7.313 -16.559,-8.063 -13.125,-0.75 -23.375,6.875 -23.375,6.875 L 45.46,-1.021 c 0,0 -5.627,4.629 -17.613,8.101 -11.987,3.471 -33.514,1.528 -42.308,-5.347 -8.795,-6.876 -8.081,-19.5 3.669,-29.25 11.75,-9.75 38.5,-8.75 49.125,-6.75 10.625,2 17.875,14.5 15.478,16.196"
             style="fill:#000000;fill-opacity:1;fill-rule:nonzero;stroke:none"
             id="path292" /></g><g
           id="g294"
           transform="translate(1317.1665,1273.8809)"><path
             d="M 0,0 C 5.212,2.16 5.802,5.795 4.611,8.608 3.42,11.42 -7.065,27.05 -6.331,30.833 c 0.735,3.784 7.05,8.943 12.695,8.607 5.645,-0.335 8.191,-0.488 8.704,2.704 0.513,3.191 -1.875,7.312 -6.894,7.482 -5.018,0.17 -16.733,-1.602 -19.004,-9.126 -9.772,4.976 -11.483,4.525 -17.144,3.218 -5.238,-1.205 -8.167,-3.578 -11.001,-3.304 -2.835,0.274 -3.71,-3.289 1.228,-3.664 4.937,-0.375 3.625,1.125 4.812,0.063 1.188,-1.063 17.544,-28.759 19.953,-31.9 C -10.573,1.772 -5.128,-2.125 0,0"
             style="fill:#000000;fill-opacity:1;fill-rule:nonzero;stroke:none"
             id="path296" /></g><g
           id="g298"
           transform="translate(2527.2466,1272.5767)"><path
             d="m 0,0 c 8.757,-3.696 44.715,15.548 63.402,25.259 18.688,9.712 -0.8,12.55 -5.979,10.67 C 51.34,33.721 12.172,14.721 9.756,15.471 7.34,16.221 2.848,43.514 -0.952,47.054 c -3.8,3.54 -19.551,4.994 -17.319,-4.123 C -16.038,33.814 -8.757,3.696 0,0"
             style="fill:#000000;fill-opacity:1;fill-rule:nonzero;stroke:none"
             id="path300" /></g><g
           id="g302"
           transform="translate(2616.4897,1264.7319)"><path
             d="m 0,0 c -8.801,0.414 -15.79,3.83 -15.611,7.629 0.179,3.799 7.458,6.544 16.259,6.13 C 9.449,13.346 16.438,9.93 16.259,6.13 16.08,2.331 8.801,-0.414 0,0 m 36.498,32.794 c -11.661,4.775 -31.696,4.491 -35.472,3.235 -3.775,-1.256 -3.869,-5.38 0.382,-6.203 4.251,-0.824 22.147,0.323 25.397,-2.677 3.25,-3 4.5,-8.5 -3.5,-11.375 -5.25,3.125 -21.375,5.875 -27.875,6.125 -6.5,0.25 -19.375,-0.5 -25.469,-8.413 -6.094,-7.913 1.455,-13.974 11.219,-18.287 9.763,-4.313 28.077,-5.755 34.776,-5.755 0.526,-4.204 12.349,-4.42 14.224,-2.574 1.875,1.845 -1.5,1.529 -2.418,6.217 -0.918,4.688 9.742,11.492 16.236,19.225 6.375,7.591 5.759,15.587 -7.5,20.482"
             style="fill:#000000;fill-opacity:1;fill-rule:nonzero;stroke:none"
             id="path304" /></g><g
           id="g306"
           transform="translate(2687.8364,1283.9009)"><path
             d="M 0,0 C 3.167,-2.687 6.334,-5.07 1.167,-9.378 -4,-13.687 -23.499,-30.02 -25.666,-32.353 c -2.167,-2.334 6.832,-9 13.666,-7.5 6.834,1.499 31.666,26.127 35.5,28.063 3.834,1.936 9.166,2.937 17.833,-1.063 8.667,-4.001 9.535,-7.234 5.935,-10.617 -3.601,-3.384 -20.434,-17.883 -22.434,-18.55 -2,-0.667 -4.836,0.667 -6.335,-2.167 -1.499,-2.833 16.835,-8.667 23.668,-9.167 6.833,-0.5 16.334,-0.167 13.167,2.167 -3.167,2.333 -9.667,2.166 -8.167,5.833 1.5,3.667 25.834,17.667 26.167,24.667 0.333,7 -14.832,14.501 -24.833,16.501 -10.001,1.999 -18.334,0.666 -18.334,0.666 0,0 -16.001,9.14 -24.334,9.237 C -2.5,5.813 0,0 0,0"
             style="fill:#000000;fill-opacity:1;fill-rule:nonzero;stroke:none"
             id="path308" /></g><g
           id="g310"
           transform="translate(2844.6694,1267.7393)"><path
             d="m 0,0 c -1.976,-7.049 -19,-61.417 -11.25,-68.263 7.75,-6.845 133.045,23.611 148.772,27.758 15.728,4.147 -12.022,7.397 -24.022,4.897 -12,-2.5 -100.25,-22.5 -102.5,-20.25 -2.25,2.25 14.051,48.968 12.9,53.734 C 22.75,2.642 1.854,6.615 0,0"
             style="fill:#000000;fill-opacity:1;fill-rule:nonzero;stroke:none"
             id="path312" /></g><g
           id="g314"
           transform="translate(2974.5034,1198.8184)"><path
             d="m 0,0 c 10.833,-3.058 7.666,-8.161 8.343,-8.912 l -30.438,5.375 c 0,0 9.801,7.007 22.095,3.537 m -29.845,-9.242 49.761,-7.821 c 0,0 14.651,21.164 -19,25.001 -33.391,4.304 -58.666,-10.24 -60.666,-19.462 -2,-9.223 9.553,-18.303 19.234,-18.733 9.682,-0.431 30.432,-1.07 30.932,1.5 0.5,2.569 -14.125,3.819 -19.875,4.694 -5.75,0.875 -10,5.125 -7.75,9.25 2.25,4.125 7.364,5.571 7.364,5.571"
             style="fill:#000000;fill-opacity:1;fill-rule:nonzero;stroke:none"
             id="path316" /></g><g
           id="g318"
           transform="translate(2972.6694,1152.2144)"><path
             d="m 0,0 c 5.751,-3.535 15.499,-0.667 21.833,3.5 6.334,4.167 31.333,18.5 38.5,17.667 7.167,-0.834 9.417,-2.189 14.417,-7.47 5,-5.28 16.25,-1.78 12.5,4.47 -3.75,6.25 -21.815,9.462 -28.815,10.462 -1.548,3.235 -6.636,5.242 -10.06,6.719 -2.25,0.97 -2.767,3.579 -4.167,3.819 -2.881,0.492 -4.59,-0.98 -3.833,-2.849 1.125,-2.776 3.853,-4.651 2.353,-5.651 C 41.228,29.667 5,10.792 1,8.167 -3,5.542 -4,2.458 0,0"
             style="fill:#000000;fill-opacity:1;fill-rule:nonzero;stroke:none"
             id="path320" /></g><g
           id="g322"
           transform="translate(3082.395,1152.6162)"><path
             d="m 0,0 c 10.339,-4.453 6.529,-9.096 7.102,-9.929 l -29.47,9.324 c 0,0 10.637,5.659 22.368,0.605 m -30.8,-5.244 48.304,-14.285 c 0,0 17.304,19.057 -15.554,27.278 -32.536,8.651 -59.502,-2.449 -62.695,-11.33 -3.193,-8.88 7.066,-19.398 16.608,-21.095 9.542,-1.698 30.028,-5.056 30.861,-2.574 0.833,2.482 -13.501,5.642 -19.086,7.263 -5.585,1.623 -9.242,6.394 -6.469,10.188 2.771,3.794 8.031,4.555 8.031,4.555"
             style="fill:#000000;fill-opacity:1;fill-rule:nonzero;stroke:none"
             id="path324" /></g><g
           id="g326"
           transform="translate(3078.7944,1118.2559)"><path
             d="m 0,0 c 8.375,2.75 37.469,13.375 42.922,17.875 5.453,4.5 -1.047,6.006 5.453,7.503 6.5,1.497 11,-5.755 11,-5.755 0,0 27.25,-1.513 35.125,-18.63 7.875,-17.118 -41.625,-22.743 -46.125,-27.868 -5.025,-5.194 -8.937,-5.446 -15.312,-3.571 -6.375,1.875 -11.438,5.446 -12.813,8.071 -1.375,2.625 44.5,13 50.125,17.375 5.625,4.375 3,10.953 -6.25,11.602 C 54.875,7.25 33.066,0.109 24.283,-3.32 15.5,-6.75 7.5,-9.895 2,-9.822 -3.5,-9.75 -12.625,-6.766 -13.75,-3.695 -14.875,-0.625 -8.375,-2.75 0,0"
             style="fill:#000000;fill-opacity:1;fill-rule:nonzero;stroke:none"
             id="path328" /></g><g
           id="g330"
           transform="translate(3215.147,1095.0474)"><path
             d="m 0,0 c -0.644,-6.5 -48.978,-17 -54.978,-21.5 -6,-4.5 -4.499,-5.333 -4.833,-9 -0.334,-3.667 -8.833,-1.814 -12.77,3.072 -4.835,6 -3.064,10.854 3.77,15.521 6.834,4.666 48.583,13.615 46.58,19.337 -2.27,6.48 4.011,8.443 7.878,5.956 C -9.686,10.386 0.892,5.81 0,0"
             style="fill:#000000;fill-opacity:1;fill-rule:nonzero;stroke:none"
             id="path332" /></g><g
           id="g334"
           transform="translate(3237.4497,1108.4336)"><path
             d="m 0,0 c 0,-3.313 -4.98,-6 -11.125,-6 -6.145,0 -11.125,2.687 -11.125,6 0,3.313 4.98,6 11.125,6 C -4.98,6 0,3.313 0,0"
             style="fill:#000000;fill-opacity:1;fill-rule:nonzero;stroke:none"
             id="path336" /></g><g
           id="g338"
           transform="translate(3226.6167,1052.2559)"><path
             d="m 0,0 c -11.696,0 -21.178,4.031 -21.178,9.003 0,4.973 9.482,9.004 21.178,9.004 11.696,0 21.178,-4.031 21.178,-9.004 C 21.178,4.031 11.696,0 0,0 m 31.221,18.541 c -11.499,9.249 -38.286,8.467 -58.306,4.501 -6.737,-1.167 -13.987,-7.417 -18.112,-12.681 -4.125,1.737 -16.25,3.014 -18.103,0.267 -1.852,-2.746 -2.397,-7.878 1.728,-8.253 4.125,-0.375 14.625,-8.625 15.625,-12.625 1,-4 -6.125,-6.625 -16.5,-4 -10.375,2.625 -9.875,7.25 -9.625,10.75 0.25,3.5 -0.5,6.5 -3,8.125 -2.5,1.625 -18,6.25 -16.75,-2 1.25,-8.25 17.375,-20.25 32.125,-23.197 14.75,-2.948 29.75,-1.428 34.5,2.572 4.75,4 -14.25,14 -12.194,17.045 2.057,3.046 11.777,-4.753 34.989,-7.42 23.212,-2.667 37.122,7 38.789,9.667 1.667,2.666 12.333,-2.334 15.333,-1.372 3,0.963 -9,9.372 -20.499,18.621"
             style="fill:#000000;fill-opacity:1;fill-rule:nonzero;stroke:none"
             id="path340" /></g><g
           id="g342"
           transform="translate(3297.0884,1035.4272)"><path
             d="m 0,0 c -1.487,-6.36 -50.779,-10.454 -57.315,-14.13 -6.538,-3.678 -5.159,-4.702 -5.968,-8.292 -0.811,-3.591 -8.994,-0.645 -12.26,4.714 -4.01,6.582 -1.619,11.162 5.767,14.895 7.384,3.734 49.945,7.15 48.706,13.085 -1.403,6.72 5.081,7.846 8.59,4.875 C -8.245,11.563 1.644,5.644 0,0"
             style="fill:#000000;fill-opacity:1;fill-rule:nonzero;stroke:none"
             id="path344" /></g><g
           id="g346"
           transform="translate(3320.9497,1045.7842)"><path
             d="m 0,0 c -0.434,-3.285 -5.723,-5.298 -11.814,-4.495 -6.092,0.803 -10.678,4.118 -10.246,7.403 0.433,3.285 5.722,5.298 11.814,4.494 C -4.154,6.6 0.433,3.285 0,0"
             style="fill:#000000;fill-opacity:1;fill-rule:nonzero;stroke:none"
             id="path348" /></g><g
           id="g350"
           transform="translate(3257.1694,983.1309)"><path
             d="m 0,0 c 4.988,-5.062 11.75,-11 20.5,-4.75 8.75,6.25 63.547,4.333 63.547,21 C 84.047,29.5 71.875,39.461 61,39.703 60,45.25 54.445,47.492 51.848,46.496 49.25,45.5 44.25,38.75 37.5,37 30.75,35.25 -7.775,26.077 -19.72,28.296 -31.664,30.515 -24.189,23.34 -18.97,19.17 -13.75,15 11.75,18.705 22,22.103 32.25,25.5 52.715,32.701 59.482,24.601 66.25,16.5 59.715,13.5 49.982,11.5 40.25,9.5 10.917,7.083 4.667,6.583 -1.583,6.083 -4.637,4.705 0,0"
             style="fill:#000000;fill-opacity:1;fill-rule:nonzero;stroke:none"
             id="path352" /></g><g
           id="g354"
           transform="translate(3329.4106,952.6445)"><path
             d="m 0,0 c -11.614,1.39 -20.549,6.519 -19.958,11.456 0.59,4.938 10.483,7.814 22.097,6.424 C 13.752,16.49 22.688,11.362 22.097,6.425 21.507,1.487 11.613,-1.389 0,0 m 33.202,14.701 c -10.319,10.549 -37.01,12.955 -57.358,11.397 -6.828,-0.36 -14.77,-5.704 -19.49,-10.441 -3.89,2.214 -15.778,4.923 -17.943,2.416 -2.166,-2.507 -3.316,-7.538 0.735,-8.4 4.05,-0.862 13.497,-10.301 14.014,-14.392 0.518,-4.091 -6.868,-5.85 -16.858,-2.011 -9.99,3.838 -8.944,8.372 -8.28,11.817 0.665,3.445 0.276,6.514 -2.013,8.424 -2.289,1.91 -17.131,8.343 -16.869,0.004 0.26,-8.34 14.846,-22.171 29.141,-26.85 14.296,-4.678 29.37,-4.951 34.562,-1.544 5.191,3.407 -12.487,15.594 -10.082,18.373 2.403,2.779 11.128,-6.119 33.858,-11.524 22.732,-5.407 37.692,2.541 39.663,4.99 1.972,2.45 11.969,-3.781 15.062,-3.183 3.093,0.6 -7.823,10.374 -18.142,20.924"
             style="fill:#000000;fill-opacity:1;fill-rule:nonzero;stroke:none"
             id="path356" /></g><g
           id="g358"
           transform="translate(3373.3364,912.8809)"><path
             d="m 0,0 -21,12.5 c 0,0 19.611,4.93 24.705,-1.088 C 11.833,3.992 0,0 0,0 M 17.334,12.001 C 9.667,26.667 -28.838,23.173 -45.419,20.253 -62,17.333 -77.775,6.052 -68.055,-3.808 c 9.721,-9.859 21.553,-10.194 24.387,-7.86 2.834,2.334 2.333,3.683 -6.333,7.925 -8.666,4.242 4.336,14.91 17.335,13.743 L 0.667,-11 c 0,0 24.334,8.335 16.667,23.001"
             style="fill:#000000;fill-opacity:1;fill-rule:nonzero;stroke:none"
             id="path360" /></g><g
           id="g362"
           transform="translate(3401.6704,891.0469)"><path
             d="M 0,0 C 0,0 3.5,10.991 0,11.829 -3.5,12.667 -7.332,4.668 -12.666,4.834 -18,5 -77.916,4.866 -84.997,4.671 c -7.081,-0.195 -8.004,-11.67 -0.337,-11.504 7.667,0.166 58.834,0.166 62.834,-0.334 4,-0.5 10.334,-3.332 10.667,-6.499 0.333,-3.167 -5.499,-7.167 -13.5,-7.167 -8.001,0 -46.501,-0.833 -52.334,1 -5.833,1.833 -10.332,2.666 -11.083,-2.334 -0.751,-5 -0.917,-10.62 2.749,-13.124 3.666,-2.504 6.167,-0.376 9.667,1.124 3.5,1.5 60.001,-1.332 71.334,3.834 C 6.333,-25.167 8.63,-6.164 0,0"
             style="fill:#000000;fill-opacity:1;fill-rule:nonzero;stroke:none"
             id="path364" /></g><g
           id="g366"
           transform="translate(1593.603,1301.1812)"><path
             d="m 0,0 c 17.399,15.7 42.551,42.836 57.642,68.101 15.091,25.265 13.594,38.595 13.176,50.93 -0.419,12.335 8.687,24.539 19.366,33.545 10.678,9.007 12.837,11.915 16.693,5.019 3.856,-6.895 9.189,-21.958 10.856,-36.094 1.666,-14.135 -1.394,-20.36 3.886,-27.331 5.28,-6.97 14.341,-9.549 21.436,-5.635 7.094,3.915 0,29.861 0,29.861 0,0 9.512,7.554 7.417,11.304 0,0 -10.538,14.249 -12.604,27.498 -2.067,13.249 -13.719,35.752 -19.719,39.002 -6,3.25 -7.995,-2.642 -11.872,-1.405 -3.878,1.238 -18.878,19.404 -27.211,17.071 -8.333,-2.333 -20.833,-35 -39.333,-42 0,0 -29.889,30.682 -37.656,38.015 -7.767,7.334 10.823,13.652 11.656,19.819 0,0 16.247,-0.575 24.957,5.379 8.709,5.954 7.063,22.524 -2.114,26.489 -9.177,3.965 -29.469,-2.188 -35.196,0.28 -5.727,2.468 -11.393,5.243 -18.103,4.048 -6.711,-1.196 -3.923,-4.972 -9.234,-4.001 -5.31,0.971 -0.31,16.5 -5.31,16.5 -5,0 -16.599,-14.345 -16.466,-23.27 -6.201,-7.425 -22.534,-40.758 -8.534,-70.425 14,-29.667 27,-23.667 26,-48.334 -1,-24.666 -16.776,-62.589 -36.221,-78.294 -19.446,-15.706 -19.916,-27.619 -20.276,-36.398 -0.359,-8.778 -10.002,-16.102 -15.835,-6.038 -5.834,10.064 -7.956,13.398 -3.312,26.731 4.644,13.333 5.627,35.342 -2.531,46.504 -8.159,11.162 -9.153,18.567 -11.446,27.072 -2.293,8.504 -1.955,19.529 1.541,22.893 3.496,3.364 -9.504,-1.886 -7.254,4.114 2.25,6 6.386,15.251 2.693,20.25 -3.693,5 -23.422,-15.919 -28.07,-25.834 -4.648,-9.915 -5.939,-25.314 -2.656,-33.49 3.283,-8.176 10.966,-32.676 9.488,-47.426 -1.477,-14.75 -4.455,-45.5 17.295,-57.75 21.75,-12.25 37.538,-4.402 45.519,-12.826 7.981,-8.424 3.166,-12.124 18.824,-24.899 15.657,-12.775 15.943,-6.528 19.664,-15.527 3.721,-8.998 3.149,-27.515 2.438,-34.003 -0.71,-6.487 0.305,-17.975 11.305,-19.735 11,-1.76 17.606,4.018 34.553,-4.621 16.947,-8.639 16.401,-3.993 26.299,-13.316 9.898,-9.323 7.399,-15.304 16.899,-10.689 9.499,4.616 14.371,4.274 16.227,11.611 1.856,7.338 5.355,9.725 9.277,2.763 3.923,-6.963 9.912,-11.092 21.912,-3.759 12,7.334 8.234,8.206 1.784,14.27 -6.451,6.064 -13.784,7.398 -19.451,12.064 -5.666,4.667 -11.999,7.667 -26.333,7.333 -14.333,-0.333 -36.334,3.333 -42,10 -5.667,6.667 -12.333,29.334 -9.333,37 C 3.733,-39.967 6.267,-12.7 0,0"
             style="fill:#000000;fill-opacity:1;fill-rule:nonzero;stroke:none"
             id="path368" /></g><g
           id="g370"><g
             id="g372" /><g
             id="g468"><g
               clip-path="url(#clipPath376)"
               id="g466"><g
                 id="g412"><g
                   clip-path="url(#clipPath380)"
                   id="g410"><g
                     transform="translate(2187.0337,999.4551)"
                     id="g400"><path
                       d="m 0,0 73.703,39.348 -12.739,12.69 22.103,141.721 -210.295,32.797 -22.102,-141.72 -12.732,-8.718 52.996,-59.107 20.385,-214.873 -6.415,-41.129 -13.274,-0.801 c -0.728,-0.043 -1.285,-0.671 -1.239,-1.398 0.044,-0.728 0.664,-1.289 1.398,-1.241 l 12.744,0.77 -1.103,-7.077 c -0.393,-1.008 -2.847,-4.631 -4.914,-5.755 -2.667,-1.446 -2.985,-5.326 -1.401,-6.682 2.761,-2.354 4.733,2.649 8.38,2.079 1.819,-0.283 2.519,-2.088 1.632,-3.259 -0.892,-1.185 -0.571,-2.742 1.483,-3.061 4.093,-0.639 4.074,3.139 4.951,4.05 -0.637,0.622 -1.382,1.891 -1.357,2.726 0.023,0.836 -0.923,6.853 -3.38,7.236 -2.453,0.383 -0.727,1.479 -1.589,2.072 l -0.724,0.113 1.209,7.751 13.445,0.811 c 0.729,0.044 1.286,0.671 1.241,1.398 -0.038,0.632 -0.514,1.133 -1.116,1.227 -0.092,0.014 -0.184,0.021 -0.283,0.012 l -12.815,-0.774 6.294,40.362 z"
                       style="fill:#000000;fill-opacity:1;fill-rule:nonzero;stroke:none"
                       id="path398" /></g><g
                     transform="translate(2248.6411,1118.5137)"
                     id="g404"><path
                       d="m 0,0 -23.837,3.718 -8.761,-56.166 23.839,-3.718 z"
                       style="fill:#ffffff;fill-opacity:1;fill-rule:nonzero;stroke:none"
                       id="path402" /></g><g
                     transform="translate(2098.8726,1063.2676)"
                     id="g408"><path
                       d="m 0,0 -4.246,0.662 4.241,10.041 22.026,141.232 4.247,-0.663 L 4.241,10.041 Z"
                       style="fill:#ffffff;fill-opacity:1;fill-rule:nonzero;stroke:none"
                       id="path406" /></g></g></g><g
                 id="g428"><g
                   clip-path="url(#clipPath384)"
                   id="g426"><g
                     transform="translate(2084.9868,1158.8662)"
                     id="g416"><path
                       d="m 0,0 14.058,-39.21 28.233,0.467 -8.646,33.496 z"
                       style="fill:#ffffff;fill-opacity:1;fill-rule:nonzero;stroke:none"
                       id="path414" /></g><g
                     transform="translate(2089.187,1185.8076)"
                     id="g420"><path
                       d="m 0,0 14.06,-39.211 28.232,0.468 -8.646,33.496 z"
                       style="fill:#ffffff;fill-opacity:1;fill-rule:nonzero;stroke:none"
                       id="path418" /></g><g
                     transform="translate(2093.3901,1212.7471)"
                     id="g424"><path
                       d="m 0,0 14.058,-39.21 28.233,0.467 -8.646,33.496 z"
                       style="fill:#ffffff;fill-opacity:1;fill-rule:nonzero;stroke:none"
                       id="path422" /></g></g></g><g
                 id="g444"><g
                   clip-path="url(#clipPath388)"
                   id="g442"><g
                     transform="translate(2056.686,1163.2798)"
                     id="g432"><path
                       d="m 0,0 14.059,-39.211 28.232,0.468 -8.645,33.495 z"
                       style="fill:#ffffff;fill-opacity:1;fill-rule:nonzero;stroke:none"
                       id="path430" /></g><g
                     transform="translate(2060.8882,1190.2217)"
                     id="g436"><path
                       d="m 0,0 14.059,-39.212 28.232,0.468 -8.645,33.496 z"
                       style="fill:#ffffff;fill-opacity:1;fill-rule:nonzero;stroke:none"
                       id="path434" /></g><g
                     transform="translate(2065.0894,1217.1611)"
                     id="g440"><path
                       d="m 0,0 14.06,-39.211 28.232,0.468 -8.647,33.496 z"
                       style="fill:#ffffff;fill-opacity:1;fill-rule:nonzero;stroke:none"
                       id="path438" /></g></g></g><g
                 id="g452"><g
                   clip-path="url(#clipPath392)"
                   id="g450"><g
                     transform="translate(2176.7329,1206.4937)"
                     id="g448"><path
                       d="M 0,0 C 2.434,15.6 16.249,26.399 30.857,24.121 45.464,21.842 55.334,7.35 52.901,-8.251 50.469,-23.851 36.653,-34.649 22.046,-32.371 7.438,-30.094 -2.432,-15.6 0,0"
                       style="fill:#ffffff;fill-opacity:1;fill-rule:nonzero;stroke:none"
                       id="path446" /></g></g></g><g
                 id="g464"><g
                   clip-path="url(#clipPath396)"
                   id="g462"><g
                     transform="translate(2203.4644,1204.1646)"
                     id="g456"><path
                       d="M 0,0 C -0.368,0.057 -0.753,-0.04 -1.062,-0.298 -1.615,-0.771 -1.686,-1.606 -1.21,-2.162 l 11.305,-13.303 c 0.468,-0.555 1.303,-0.625 1.863,-0.152 0.554,0.473 0.625,1.307 0.149,1.863 L 0.803,-0.451 C 0.591,-0.2 0.304,-0.047 0,0"
                       style="fill:#000000;fill-opacity:1;fill-rule:nonzero;stroke:none"
                       id="path454" /></g><g
                     transform="translate(2203.4644,1204.166)"
                     id="g460"><path
                       d="m 0,0 c -0.253,0.039 -0.516,0.007 -0.762,-0.109 l -11.09,-5.176 c -0.662,-0.308 -0.949,-1.094 -0.639,-1.757 0.311,-0.664 1.102,-0.946 1.755,-0.638 l 11.09,5.176 c 0.663,0.308 0.949,1.094 0.64,1.757 C 0.801,-0.333 0.419,-0.066 0,0"
                       style="fill:#000000;fill-opacity:1;fill-rule:nonzero;stroke:none"
                       id="path458" /></g></g></g></g></g></g><g
           id="g470"
           transform="translate(2059.8062,1226.0112)"><path
             d="m 0,0 22.104,141.72 -9.474,12.181 68.479,40.162 87.412,204.454 21.655,-221.463 58.22,-59.923 -15.998,-8.208 -22.103,-141.72 z"
             style="fill:#000000;fill-opacity:1;fill-rule:nonzero;stroke:none"
             id="path472" /></g><g
           id="g474"
           transform="translate(2272.4087,1270.9004)"><path
             d="m 0,0 -23.839,3.718 8.76,56.165 23.838,-3.717 z"
             style="fill:#ffffff;fill-opacity:1;fill-rule:nonzero;stroke:none"
             id="path476" /></g><g
           id="g478"
           transform="translate(2146.5737,1369.1309)"><path
             d="m 0,0 -4.245,0.661 0.982,-10.855 -22.026,-141.232 4.246,-0.662 22.026,141.233 z"
             style="fill:#ffffff;fill-opacity:1;fill-rule:nonzero;stroke:none"
             id="path480" /></g></g></g><g
       id="g482"><g
         id="g484"
         clip-path="url(#clipPath488)"><g
           id="g490"
           transform="translate(2104.2368,1282.2998)"><path
             d="M 0,0 25.33,33.068 52.082,24.025 33.645,-5.247 Z"
             style="fill:#ffffff;fill-opacity:1;fill-rule:nonzero;stroke:none"
             id="path492" /></g><g
           id="g494"
           transform="translate(2100.0356,1255.3589)"><path
             d="M 0,0 25.331,33.067 52.081,24.025 33.645,-5.248 Z"
             style="fill:#ffffff;fill-opacity:1;fill-rule:nonzero;stroke:none"
             id="path496" /></g><g
           id="g498"
           transform="translate(2095.8335,1228.4189)"><path
             d="M 0,0 25.331,33.068 52.08,24.025 33.645,-5.247 Z"
             style="fill:#ffffff;fill-opacity:1;fill-rule:nonzero;stroke:none"
             id="path500" /></g></g></g><g
       id="g502"><g
         id="g504"
         clip-path="url(#clipPath508)"><g
           id="g510"
           transform="translate(2075.938,1286.7139)"><path
             d="M 0,0 25.33,33.068 52.081,24.024 33.644,-5.247 Z"
             style="fill:#ffffff;fill-opacity:1;fill-rule:nonzero;stroke:none"
             id="path512" /></g><g
           id="g514"
           transform="translate(2071.7358,1259.7729)"><path
             d="M 0,0 25.33,33.068 52.08,24.025 33.644,-5.248 Z"
             style="fill:#ffffff;fill-opacity:1;fill-rule:nonzero;stroke:none"
             id="path516" /></g><g
           id="g518"
           transform="translate(2067.5337,1232.832)"><path
             d="M 0,0 25.331,33.068 52.081,24.025 33.646,-5.247 Z"
             style="fill:#ffffff;fill-opacity:1;fill-rule:nonzero;stroke:none"
             id="path520" /></g></g></g><g
       id="g522"><g
         id="g524"
         clip-path="url(#clipPath528)"><g
           id="g530"
           transform="translate(2177.1245,1208.9961)"><path
             d="M 0,0 C -2.435,-15.6 7.438,-30.093 22.044,-32.372 36.652,-34.65 50.467,-23.851 52.899,-8.25 55.333,7.35 45.463,21.843 30.854,24.121 16.248,26.399 2.433,15.6 0,0"
             style="fill:#ffffff;fill-opacity:1;fill-rule:nonzero;stroke:none"
             id="path532" /></g></g></g><g
       id="g534"><g
         id="g536"
         clip-path="url(#clipPath540)"><g
           id="g542"
           transform="translate(2203.2944,1203.0747)"><path
             d="m 0,0 c -0.367,0.058 -0.705,0.267 -0.92,0.607 -0.384,0.62 -0.197,1.436 0.425,1.821 l 14.82,9.229 c 0.613,0.385 1.432,0.198 1.82,-0.423 0.385,-0.619 0.197,-1.435 -0.424,-1.82 L 0.901,0.185 C 0.623,0.01 0.304,-0.047 0,0"
             style="fill:#000000;fill-opacity:1;fill-rule:nonzero;stroke:none"
             id="path544" /></g><g
           id="g546"
           transform="translate(2203.2944,1203.0737)"><path
             d="m 0,0 c -0.253,0.04 -0.494,0.15 -0.693,0.335 l -8.988,8.307 c -0.537,0.495 -0.57,1.332 -0.074,1.869 0.5,0.537 1.339,0.566 1.867,0.073 L 1.1,2.277 C 1.637,1.781 1.67,0.945 1.173,0.409 0.862,0.073 0.418,-0.065 0,0"
             style="fill:#000000;fill-opacity:1;fill-rule:nonzero;stroke:none"
             id="path548" /></g><g
           id="g550"
           transform="translate(2225.5933,1607.0029)"><path
             d="M 0,0 8.403,53.88"
             style="fill:#000000;fill-opacity:1;fill-rule:nonzero;stroke:none"
             id="path552" /></g><g
           id="g554"
           transform="translate(2225.3452,1605.4121)"><path
             d="m 0,0 c -0.877,0.137 -1.478,0.961 -1.341,1.839 l 8.404,53.88 c 0.136,0.877 0.959,1.479 1.836,1.343 0.877,-0.137 1.48,-0.961 1.343,-1.839 L 1.839,1.343 C 1.702,0.465 0.878,-0.137 0,0"
             style="fill:#000000;fill-opacity:1;fill-rule:nonzero;stroke:none"
             id="path556" /></g><g
           id="g558"
           transform="translate(2247.4937,1653.7603)"><path
             d="m 0,0 c -0.092,0.014 -0.182,0.038 -0.274,0.075 l -27.441,10.634 c -0.68,0.264 -1.02,1.03 -0.756,1.709 0.264,0.681 1.026,1.027 1.71,0.756 L 0.681,2.539 C 1.361,2.276 1.702,1.509 1.437,0.83 1.208,0.239 0.602,-0.094 0,0"
             style="fill:#000000;fill-opacity:1;fill-rule:nonzero;stroke:none"
             id="path560" /></g><g
           id="g562"
           transform="translate(2232.3794,1660.6646)"><path
             d="m 0,0 1.361,8.731 c -0.065,1.081 -1.3,5.278 -2.927,6.98 -2.099,2.19 -1.22,5.983 0.702,6.79 3.346,1.404 3.7,-3.963 7.347,-4.533 1.821,-0.283 3.035,1.223 2.547,2.608 -0.488,1.402 0.291,2.785 2.345,2.465 4.094,-0.639 2.925,-4.23 3.482,-5.364 -0.795,-0.4 -1.892,-1.383 -2.122,-2.184 C 12.502,14.69 9.77,9.246 7.313,9.628 4.858,10.012 6.17,8.442 5.167,8.138 L 4.444,8.25 3.008,-0.96"
             style="fill:#000000;fill-opacity:1;fill-rule:nonzero;stroke:none"
             id="path564" /></g><g
           id="g566"
           transform="translate(2486.3491,348.9014)"><path
             d="m 0,0 8.716,-5.229 c 1.791,-1.075 -13.097,-20.963 -14.745,-22.92 -11.483,-13.63 -25.023,-20.941 -43.152,-16.584 -11.807,2.848 -22.991,7.881 -34.59,11.372 -7.901,0.988 -16.268,2.324 -23.425,-2.144 -5.19,-2.916 -9,-7.564 -13.151,-11.714 -2.775,1.738 -5.55,3.474 -8.326,5.211 -0.959,0.6 9.937,16.457 11.169,18.136 8.794,11.971 19.752,22.177 35.486,22.095 14.645,0 28.924,-7.618 42.737,-11.611 C -23.527,-17.941 -9.814,-13.434 0,0"
             style="fill:#000000;fill-opacity:1;fill-rule:nonzero;stroke:none"
             id="path568" /></g><g
           id="g570"
           transform="translate(1279.3794,348.9014)"><path
             d="m 0,0 -8.716,-5.229 c -1.791,-1.075 13.097,-20.963 14.745,-22.92 11.483,-13.63 25.023,-20.941 43.152,-16.584 11.807,2.848 22.991,7.881 34.59,11.372 7.901,0.988 16.268,2.324 23.425,-2.144 5.19,-2.916 9,-7.564 13.151,-11.714 2.775,1.738 5.55,3.474 8.326,5.211 0.959,0.6 -9.937,16.457 -11.169,18.136 -8.794,11.971 -19.752,22.177 -35.486,22.095 -14.645,0 -28.924,-7.618 -42.737,-11.611 C 23.527,-17.941 9.814,-13.434 0,0"
             style="fill:#000000;fill-opacity:1;fill-rule:nonzero;stroke:none"
             id="path572" /></g><g
           id="g574"
           transform="translate(2253.772,214.3584)"><path
             d="m 0,0 -13.489,8.653 v 106.386 h 24.838 l 17.033,36.474 -11.713,2.351 C 14.572,151.289 9.545,142.256 6.252,142.256 h -19.741 v 86.698 L -53.152,200.665 V 142.256 H -78.2 l -17.242,-35.689 11.425,-3.006 c 2.133,2.59 7.107,11.478 10.45,11.478 h 20.415 V 8.706 l -32.799,-20.315 7.947,-10.432 15.793,8.967 32.354,-22.119 53.624,33.781 -7.936,10.405 z"
             style="fill:#000000;fill-opacity:1;fill-rule:nonzero;stroke:none"
             id="path576" /></g><g
           id="g578"
           transform="translate(2064.1538,320.8223)"><path
             d="m 0,0 c 2.419,0.837 4.405,1.594 6.065,2.326 8.299,-13.711 23.747,-19.703 39.277,-19.092 14.973,0.589 34.43,7.401 44.138,19.48 2.518,3.134 4.079,8.351 0.043,11.093 -2.009,1.366 -4.015,0.954 -6.159,0.389 C 78.858,12.755 74.116,11.929 69.376,12.247 54.722,13.232 44.233,25.212 35.166,35.479 18.775,24.452 1.212,15.075 -18.205,10.738 -32.811,7.477 -46.921,7.838 -61.625,9.438 L -65.167,-4.76 c 5.161,-1.087 10.323,-1.543 15.57,-1.961 v -91.351 l -31.846,-18.014 7.452,-10.642 c 6.694,2.955 13.388,5.909 20.083,8.862 3.39,1.496 9.716,-3.334 12.795,-4.786 l 42.46,-20.025 c 28.216,15.221 56.373,30.558 84.658,45.651 l -8.026,11.242 c -15.037,-7.905 -30.073,-15.812 -45.109,-23.717 -3.669,-1.93 -14.611,4.632 -18.217,6.007 -7.891,3.01 -15.782,6.02 -23.674,9.03 V -2.85 C -5.753,-1.909 -2.745,-0.968 0,0 2.419,0.837 -2.745,-0.968 0,0"
             style="fill:#000000;fill-opacity:1;fill-rule:nonzero;stroke:none"
             id="path580" /></g><g
           id="g582"
           transform="translate(1829.8911,258.6475)"><path
             d="M 0,0 C 5.268,5.674 13.361,11.111 24.067,16.159 L 43.885,0.55 l 9.569,9.7 -48.63,41.282 c 8.888,0.113 17.799,1.114 26.447,3.193 4.035,0.969 8.021,2.14 11.944,3.494 1.757,0.606 8.368,4.242 9.831,3.469 6.232,-3.298 12.464,-6.595 18.696,-9.893 V -23.479 L 23.309,-50.355 c -10.137,3.999 -21.363,9.534 -27.426,19.04 -6.57,10.3 -3.89,22.69 4.117,31.315 5.268,5.674 -5.242,-5.646 0,0 m 141.538,-39.949 -15.282,-8.812 c -3.973,3.331 -13.936,8.34 -13.936,13.824 V -5.57 54.696 l 36.159,19.689 -7.06,9.855 L 119.653,73.626 81.875,97.34 C 61.2,82.119 38.801,67.814 12.642,65.103 24.648,81.902 5.149,97.811 -11.08,96.659 -31.397,95.218 -41.137,72.868 -25.482,58.783 -13.047,47.595 0.066,37.032 12.786,26.146 -13.437,15.959 -48.251,-0.015 -48.251,-32.995 c 0,-14.754 8.177,-26.866 20.065,-35.006 5.829,-3.991 12.245,-7.083 18.828,-9.607 2.385,-0.915 6.441,-3.665 8.931,-2.275 24.27,13.556 48.541,27.111 72.811,40.666 3.159,-18.234 13.027,-32.506 29.296,-41.415 l 48.252,30.616 z"
             style="fill:#000000;fill-opacity:1;fill-rule:nonzero;stroke:none"
             id="path584" /></g><g
           id="g586"
           transform="translate(1800.334,483.7861)"><path
             d="m 0,0 1.072,2.51 -11.138,5.438 c -6.167,-8.522 -13.307,-18.903 -24.696,-20.136 -13.154,-1.421 -22.98,9.606 -30.758,18.593 -26.454,-21.579 -54.934,-40.707 -85.012,-56.866 v -190.891 c 0,-10.877 0.2,-22.664 -2.947,-33.21 -3.363,-11.272 -16.053,-12.443 -25.946,-9.632 -17.088,4.853 -32.736,14.565 -48.429,22.632 -17.609,9.052 -37.51,13.194 -57.281,11.615 -39.451,-3.151 -79.585,-32.479 -88.105,-72.353 -7.618,-35.65 13.387,-66.308 44.982,-81.078 23.758,-11.106 50.669,-13.794 76.603,-13.061 26.395,0.745 53.512,5.127 76.494,18.819 l -4.876,11.844 c -31.822,-18.453 -73.231,-21.558 -109.057,-15.961 -31.848,4.975 -66.052,22.567 -70.299,57.905 -4.636,38.581 26.387,66.341 64.144,61.677 33.955,-4.195 64.777,-22.052 99.573,-22.686 23.83,-0.434 51.899,7.716 69.786,24.039 16.523,15.217 21.492,34.997 21.492,56.808 v 65.004 h 25.355 c 5.043,0 13.228,-1.864 17.527,1.222 14.514,10.416 29.028,20.833 43.541,31.249 h -86.423 v 85.836 l 7.085,4.733 c 11.063,-7.922 24.425,-11.321 37.924,-11.321 h -3.38 c 12.968,0 23.732,2.343 34.688,9.93 C -14.965,-28.258 -6.155,-14.471 0,0 0,0 -5.072,-11.923 0,0"
             style="fill:#000000;fill-opacity:1;fill-rule:nonzero;stroke:none"
             id="path588" /></g><g
           id="g590"
           transform="translate(1629.8926,434.7363)"><path
             d="m 0,0 c -6.879,4.174 -19.705,-4.673 -25.16,-7.83 -10.229,-5.92 -22.201,-13.858 -25.483,-25.958 -3.715,-13.701 -2.014,-29.571 -2.014,-43.681 -12.577,0 -26.746,0.068 -37.878,-6.683 -13.958,-8.466 -14.085,-26.321 -12.071,-40.786 0.665,-4.782 3.264,-10.303 8.98,-9.484 7.138,1.025 6.845,11.642 10.026,16.52 6.491,9.953 20.645,7.962 30.943,7.962 v -48.284 c 0,-6.876 -0.729,-13.84 -3.144,-20.322 -1.809,-4.854 -11.767,-15.392 -1.927,-18.103 4.89,-1.349 12.028,3.422 16.044,5.383 8.911,4.35 17.874,10.011 24.773,17.201 12.95,13.497 9.695,35.504 9.695,52.957 v 65.134 18.923 c 0,6.228 0.615,12.474 2.53,18.427 C -3.142,-13.827 6.148,-4.063 0,0 -1.164,0.706 1.621,-1.071 0,0"
             style="fill:#000000;fill-opacity:1;fill-rule:nonzero;stroke:none"
             id="path592" /></g><g
           id="g594"
           transform="translate(1675.4897,490.8711)"><path
             d="m 0,0 c -8.307,-7.998 -17.706,-16.305 -29.245,-19.014 -6.283,-1.475 -11.539,-0.266 -17.608,1.38 -25.646,6.958 -49.981,17.382 -77.133,15.625 -24.515,-1.587 -51.073,-12.734 -64.565,-34.252 -13.504,-21.537 -5.801,-48.029 13.822,-62.724 l 9.595,7.842 c -12.934,12.642 -25.765,35.669 -6.099,48.915 16.911,11.39 42.552,4.561 60.816,0.624 21.124,-4.551 42.147,-9.749 63.488,-3.458 22.239,6.557 40.518,21.297 56.302,37.767 z"
             style="fill:#000000;fill-opacity:1;fill-rule:nonzero;stroke:none"
             id="path596" /></g></g></g></g></svg>
