<svg width="1593" height="664" viewBox="0 0 1593 664" fill="none" xmlns="http://www.w3.org/2000/svg">
<path d="M1405.17 446.58V272.99H1533.72V156.727H1405.17V0.0273437L1265.36 22.1831V448.481C1265.36 480.362 1268.28 509.464 1274.28 535.715C1280.2 561.966 1290.66 584.341 1305.72 602.767C1320.71 621.194 1340.75 635.599 1365.76 645.909C1390.76 656.219 1422.35 661.411 1460.52 661.411C1490.57 661.411 1515.87 658.925 1536.49 653.879C1557.11 648.907 1575.91 642.911 1592.8 636.038L1573.05 527.233C1559.89 532.278 1545.41 536.154 1529.4 538.932C1513.46 541.711 1497.96 543.173 1482.97 543.173C1451.67 543.173 1430.91 534.399 1420.6 516.923C1410.29 499.447 1405.17 475.975 1405.17 446.58Z" fill="#502379"/>
<path d="M400.332 650.15C426.071 595.821 451.517 539.225 476.525 480.435C501.532 421.646 525.297 363.514 547.818 305.967C570.34 248.421 591.033 193.434 610.045 141.005C628.983 88.4312 645.728 41.4872 660.279 0.0273437L504.457 0.0273437C492.246 37.9043 478.645 78.4867 463.802 121.848C448.885 165.282 433.749 208.57 418.32 251.638C402.892 294.78 387.902 336.02 373.424 375.506C358.946 414.992 345.564 448.993 333.353 477.51C320.411 448.774 306.81 414.699 292.698 375.213C278.512 335.728 263.742 294.414 248.313 251.346C232.884 208.277 217.675 164.989 202.758 121.628C187.842 78.1942 174.314 37.6849 162.176 0.0273437L0.796875 0.0273438C14.6168 41.2678 30.996 88.2118 50.0076 140.786C69.0192 193.36 89.7857 248.348 112.453 305.821C135.121 363.295 159.032 421.426 184.185 480.143C209.339 538.859 234.859 595.528 260.744 650.15H400.332Z" fill="#502379"/>
<path d="M1219.22 0.0273437L1079.41 22.1831V650.15H1219.22V0.0273437Z" fill="#502379"/>
<path d="M1040.36 409.947C1040.36 270.066 926.953 156.654 787.072 156.654C729.379 156.654 676.22 175.958 633.663 208.351C621.817 240.013 609.387 272.479 596.298 305.822C577.433 353.936 557.763 402.562 537.143 451.553C557.105 571.692 661.376 663.24 787.072 663.24C926.953 663.24 1040.36 549.828 1040.36 409.947ZM913.572 409.947C913.572 479.193 857.414 535.35 788.168 535.35C718.922 535.35 662.765 479.193 662.765 409.947C662.765 340.701 718.922 284.544 788.168 284.544C857.414 284.544 913.572 340.701 913.572 409.947Z" fill="#502379"/>
</svg>
